<svg width="602" height="772" viewBox="0 0 602 772" fill="none" xmlns="http://www.w3.org/2000/svg">
<path d="M22.9881 22.9678V743.637L267.681 539.247L570.952 487.137L22.9881 22.9678Z" fill="black"/>
<path d="M275.952 554.137L34.6748 757.376C31.1639 761.543 25.4187 763.075 20.2996 761.224C15.1805 759.374 11.7555 754.521 11.7555 749.067L10 22.9923C9.98776 17.9431 12.9095 13.3474 17.5007 11.215C22.0796 9.08256 27.4811 9.79337 31.3603 13.0533L587.39 481.106C591.551 484.611 593.086 490.346 591.208 495.457C589.342 500.567 584.468 503.974 579.017 503.974L275.952 554.137ZM261.221 526.195L543.478 478.091L36.0374 50.9097L37.6333 713.564L261.221 526.195Z" fill="white"/>
<path d="M13.6729 1.97216C21.5635 -1.52465 30.7533 -0.310437 37.4708 5.13036L37.794 5.39794L37.7999 5.40283L593.83 473.456L593.832 473.458C601.199 479.662 603.93 489.829 600.594 498.907L600.593 498.906C597.387 507.661 589.213 513.576 579.96 513.954L280.294 563.554L41.6749 764.553C35.4171 771.372 25.6424 773.788 16.9005 770.628C7.84638 767.355 1.76611 758.767 1.75593 749.091L6.71249e-05 23.0161C-0.0212448 14.1759 5.03382 6.123 12.9883 2.28857V1.39111L13.6729 1.97216ZM31.3603 13.0533C27.4811 9.79337 22.0796 9.08256 17.5007 11.215C12.9095 13.3474 9.98776 17.9431 10 22.9923L11.7555 749.067L11.7657 749.577C11.9715 754.821 15.3406 759.431 20.2996 761.224C25.4187 763.075 31.1639 761.543 34.6748 757.376L275.952 554.137L579.017 503.974C584.468 503.974 589.342 500.567 591.208 495.457C593.086 490.346 591.551 484.611 587.39 481.106L31.3603 13.0533Z" fill="white"/>
</svg>
