<svg width="104" height="103" viewBox="0 0 104 103" fill="none" xmlns="http://www.w3.org/2000/svg">
<rect x="2" y="100.635" width="98.6352" height="99.3293" transform="rotate(-90 2 100.635)" fill="#262626" stroke="#F4EEE4" stroke-width="4"/>
<path d="M19.2621 55.5683C18.9002 55.5683 18.5986 55.4457 18.3573 55.2005C18.0557 54.9554 17.8898 54.6336 17.8596 54.2352L17 20.7235C17.0302 20.08 17.1357 19.5436 17.3167 19.1146C17.4675 18.6549 17.6937 18.2718 17.9953 17.9654C18.2668 17.6895 18.6438 17.4597 19.1264 17.2758C19.5487 17.0919 20.0614 17 20.6647 17L53.6467 17.8734C54.0087 17.8734 54.3254 18.0113 54.5968 18.2871C54.8381 18.5936 54.9588 18.9307 54.9588 19.2985L54.8683 20.9534C54.8079 22.2405 54.3404 23.2672 53.4657 24.0333C52.591 24.7995 51.4147 25.1366 49.9368 25.0446L35.7305 24.6769C34.9765 24.6462 34.3582 24.8761 33.8756 25.3664C33.3628 25.8261 33.1065 26.3931 33.1065 27.0673C33.1065 27.7415 33.3779 28.3544 33.9208 28.9061L84.5023 80.2998C84.8039 80.6063 84.9698 80.9587 85 81.3571C85 81.7861 84.8492 82.1539 84.5476 82.4604L81.5163 85.5403C81.2147 85.8468 80.8527 86 80.4305 86C80.0082 86 79.6463 85.8468 79.3446 85.5403L28.6727 34.0546C28.1599 33.5336 27.5717 33.2732 26.9082 33.2732C26.2446 33.2732 25.7017 33.5183 25.2794 34.0087C24.7969 34.499 24.5706 35.1272 24.6008 35.8934L24.9175 50.4657C25.008 51.9674 24.6762 53.1626 23.9221 54.0513C23.1681 54.94 22.1728 55.3997 20.9361 55.4304L19.2621 55.5683Z" fill="#F4EEE4"/>
</svg>
