<svg width="22" height="22" viewBox="0 0 22 22" fill="none" xmlns="http://www.w3.org/2000/svg">
<path d="M12.0613 19.4012C12.0613 19.497 12.0293 19.5768 11.9654 19.6407C11.9014 19.7206 11.8175 19.7645 11.7135 19.7725L2.97135 20C2.80346 19.992 2.66356 19.9641 2.55163 19.9162C2.43171 19.8762 2.33178 19.8164 2.25183 19.7365C2.17988 19.6647 2.11992 19.5649 2.07195 19.4371C2.02398 19.3253 2 19.1896 2 19.0299L2.22785 10.2994C2.22785 10.2036 2.26382 10.1198 2.33578 10.0479C2.41572 9.98403 2.50366 9.95209 2.5996 9.95209L3.03131 9.97605C3.36709 9.99201 3.63491 10.1158 3.83478 10.3473C4.03464 10.5788 4.12258 10.8902 4.0986 11.2814L4.00266 15.0419C3.99467 15.2415 4.05463 15.4052 4.18254 15.5329C4.30246 15.6687 4.45037 15.7365 4.62625 15.7365C4.80213 15.7365 4.96203 15.6647 5.10593 15.521L18.513 2.13174C18.5929 2.0519 18.6849 2.00798 18.7888 2C18.9007 2 18.9967 2.03992 19.0766 2.11976L19.8801 2.92216C19.96 3.002 20 3.0978 20 3.20958C20 3.32136 19.96 3.41717 19.8801 3.49701L6.44903 16.9102C6.31312 17.0459 6.24517 17.2016 6.24517 17.3772C6.24517 17.5529 6.30913 17.6966 6.43704 17.8084C6.56496 17.9361 6.72885 17.996 6.92871 17.988L10.7302 17.9042C11.1219 17.8802 11.4337 17.9681 11.6656 18.1677C11.8974 18.3673 12.0173 18.6307 12.0253 18.9581L12.0613 19.4012Z" fill="#262626"/>
</svg>
