<svg width="44" height="44" viewBox="0 0 44 44" fill="none" xmlns="http://www.w3.org/2000/svg">
<path d="M-6.82324e-05 21.9602C-6.82324e-05 10.6802 8.81993 0.000211239 21.9599 0.000211239C33.2099 0.000211239 43.9199 8.85021 43.9199 21.9602C43.9199 33.7202 34.6199 43.9202 21.9599 43.9202C9.74993 43.9202 -6.82324e-05 34.1702 -6.82324e-05 21.9602ZM4.16993 21.9602C4.16993 31.8302 12.0599 39.7202 21.9599 39.7202C31.8299 39.7202 39.7199 31.8302 39.7199 21.9602C39.7199 12.0902 31.8299 4.20021 21.9599 4.20021C12.0599 4.20021 4.16993 12.0902 4.16993 21.9602ZM14.5799 33.2702C14.0699 33.2702 13.6199 32.8502 13.6199 32.3402V31.2602C13.6199 30.1502 14.1599 29.2202 14.7899 28.5902L23.9399 19.6202C24.8099 18.7802 25.4099 17.8202 25.4099 16.4702C25.4099 14.6102 24.0299 13.4402 22.1699 13.4402C20.4599 13.4402 19.3499 14.2202 18.3599 15.3902C17.6699 16.1402 16.3499 16.4702 15.3599 15.5702L14.2199 14.5202C13.8899 14.2202 13.8299 13.8302 14.0399 13.4702C16.0199 10.2302 19.2599 8.73021 22.1999 8.73021C26.8199 8.73021 30.1799 11.7902 30.1799 16.4702C30.1799 18.8102 29.0999 21.2402 27.4499 22.8602L23.2799 27.0302C22.6799 27.6302 23.0699 28.5002 23.8799 28.5002H29.6399C30.1499 28.5002 30.5999 28.9202 30.5999 29.4302V32.3402C30.5999 32.8502 30.1499 33.2702 29.6399 33.2702H14.5799Z" fill="#262626"/>
</svg>
