<svg width="157" height="158" viewBox="0 0 157 158" fill="none" xmlns="http://www.w3.org/2000/svg">
<path d="M0 78.5257C0 64.866 3.35897 51.9929 10.0769 39.9065C16.7948 27.8201 26.1213 18.1653 38.0564 10.9421C49.9914 3.64737 63.463 0 78.4712 0C92.1214 0 104.986 3.3613 117.064 10.0839C129.142 16.8065 138.79 26.1752 146.008 38.1901C153.297 50.1334 156.942 63.5786 156.942 78.5257C156.942 92.543 153.512 105.595 146.651 117.681C139.79 129.696 130.356 139.279 118.35 146.431C106.415 153.511 93.122 157.051 78.4712 157.051C64.1062 157.051 50.9205 153.583 38.914 146.646C26.9789 139.637 17.5095 130.125 10.5057 118.11C3.5019 106.096 0 92.9006 0 78.5257ZM12.4353 78.5257C12.4353 90.6121 15.3655 101.697 21.2258 111.781C27.0861 121.865 35.0547 129.875 45.1316 135.811C55.28 141.675 66.3932 144.607 78.4712 144.607C90.5491 144.607 101.627 141.675 111.703 135.811C121.78 129.875 129.749 121.865 135.609 111.781C141.541 101.697 144.507 90.6121 144.507 78.5257C144.507 66.4393 141.541 55.3542 135.609 45.2703C129.749 35.1864 121.78 27.2122 111.703 21.3478C101.627 15.4119 90.5491 12.444 78.4712 12.444C66.3932 12.444 55.28 15.4119 45.1316 21.3478C35.0547 27.2122 27.0861 35.1864 21.2258 45.2703C15.3655 55.3542 12.4353 66.4393 12.4353 78.5257ZM77.0775 121.543C72.5751 121.543 67.9297 120.649 63.1414 118.861C58.3531 117.002 54.2795 114.785 50.9205 112.21C50.4917 111.996 50.2416 111.638 50.1701 111.137C50.1701 110.565 50.2773 110.029 50.4917 109.528L52.6357 104.701C53.4933 102.913 54.7797 101.876 56.4949 101.59C58.2816 101.304 60.1041 101.769 61.9622 102.985C64.1062 104.343 66.5361 105.452 69.2519 106.31C72.0391 107.097 74.5762 107.49 76.8631 107.49C79.9362 107.49 82.6877 106.811 85.1176 105.452C87.619 104.093 89.5486 102.198 90.9065 99.7663C92.2644 97.3347 92.9433 94.5813 92.9433 91.5061C92.9433 88.7169 92.3001 86.2138 91.0137 83.9968C89.7987 81.7797 88.0121 80.0633 85.6536 78.8475C83.2952 77.6317 80.6152 77.0238 77.6135 77.0238C75.7554 77.0238 74.1116 77.1311 72.6823 77.3457C71.253 77.4887 69.6807 77.8105 67.9655 78.3111C67.6796 78.3827 67.4652 78.4542 67.3223 78.5257C67.1793 78.5257 66.9649 78.5615 66.679 78.633C65.0353 79.2051 63.6774 79.4912 62.6054 79.4912C61.319 79.4912 60.1398 79.1694 59.0678 78.5257C58.0672 77.8105 57.0667 76.7735 56.0661 75.4147C55.6373 74.628 55.4229 73.9486 55.4229 73.3765C55.4944 73.0904 55.5301 72.8401 55.5301 72.6255L60.6758 38.6192C60.8187 37.904 61.1403 37.3319 61.6406 36.9028C62.1409 36.4022 62.7483 36.1519 63.463 36.1519H100.447C101.162 36.1519 101.734 36.4022 102.163 36.9028C102.663 37.3319 102.913 37.904 102.913 38.6192V47.8449C102.913 48.4886 102.663 49.0607 102.163 49.5613C101.662 50.0619 101.091 50.3122 100.447 50.3122H76.2199C75.005 50.3122 74.0044 50.6698 73.2183 51.385C72.4322 52.0286 71.9676 52.9226 71.8247 54.0669L70.7527 61.3616C70.4668 63.1495 70.7169 64.3653 71.5031 65.009C72.3607 65.6526 73.5042 65.8314 74.9335 65.5454C77.0061 65.1163 79.0072 64.9017 80.9368 64.9017C86.011 64.9017 90.5491 66.046 94.5513 68.3345C98.5535 70.5516 101.662 73.6983 103.878 77.7748C106.093 81.7797 107.201 86.3568 107.201 91.5061C107.201 97.2274 105.915 102.377 103.342 106.954C100.769 111.531 97.1956 115.107 92.6217 117.681C88.0478 120.256 82.8664 121.543 77.0775 121.543Z" fill="#262626"/>
</svg>
