<svg width="160" height="158" viewBox="0 0 160 158" fill="none" xmlns="http://www.w3.org/2000/svg">
<path d="M0 78.5257C0 64.866 3.41495 51.9929 10.2448 39.9065C17.0747 27.8201 26.5567 18.1653 38.6906 10.9421C50.8246 3.64737 64.5207 0 79.779 0C93.6568 0 106.735 3.3613 119.015 10.0839C131.294 16.8065 141.103 26.1752 148.441 38.1901C155.852 50.1334 159.558 63.5786 159.558 78.5257C159.558 92.543 156.07 105.595 149.095 117.681C142.12 129.696 132.529 139.279 120.322 146.431C108.188 153.511 94.674 157.051 79.779 157.051C65.1746 157.051 51.7692 153.583 39.5625 146.646C27.4286 139.637 17.8013 130.125 10.6808 118.11C3.56027 106.096 0 92.9006 0 78.5257ZM12.6426 78.5257C12.6426 90.6121 15.6216 101.697 21.5796 111.781C27.5376 121.865 35.639 129.875 45.8838 135.811C56.2013 141.675 67.4997 144.607 79.779 144.607C92.0583 144.607 103.32 141.675 113.565 135.811C123.81 129.875 131.911 121.865 137.869 111.781C143.9 101.697 146.915 90.6121 146.915 78.5257C146.915 66.4393 143.9 55.3542 137.869 45.2703C131.911 35.1864 123.81 27.2122 113.565 21.3478C103.32 15.4119 92.0583 12.444 79.779 12.444C67.4997 12.444 56.2013 15.4119 45.8838 21.3478C35.639 27.2122 27.5376 35.1864 21.5796 45.2703C15.6216 55.3542 12.6426 66.4393 12.6426 78.5257ZM78.9071 121.221C73.385 121.221 68.4806 120.149 64.1938 118.003C59.9796 115.786 56.6736 112.675 54.2759 108.67C51.8781 104.665 50.6793 100.124 50.6793 95.0461C50.6793 91.2557 51.1516 87.7514 52.0961 84.5331C53.1133 81.2433 54.8571 77.3814 57.3275 72.9474L75.2015 40.872C76.2914 38.941 77.4176 37.5822 78.5801 36.7955C79.8153 36.0088 81.5591 35.6155 83.8115 35.6155H90.3508C91.2954 35.6155 91.9856 36.0088 92.4216 36.7955C92.8575 37.5822 92.8212 38.3689 92.3126 39.1556L77.9262 64.5799C77.4176 65.4381 77.1996 66.2248 77.2723 66.9399C77.3449 67.6551 77.6719 68.1557 78.2532 68.4418C78.8344 68.7279 79.561 68.8351 80.4329 68.7636C80.9415 68.6206 81.4865 68.5133 82.0677 68.4418C83.4482 68.2272 84.7198 68.12 85.8823 68.12C89.7332 68.12 93.3298 69.2285 96.6721 71.4455C100.087 73.6625 102.812 76.7735 104.846 80.7785C106.881 84.7119 107.898 89.1817 107.898 94.1879C107.898 99.3372 106.59 103.986 103.974 108.134C101.431 112.21 97.9073 115.428 93.4025 117.789C88.9703 120.077 84.1385 121.221 78.9071 121.221ZM64.5207 94.2952C64.5207 96.7983 65.1383 99.0511 66.3735 101.054C67.6087 103.056 69.3525 104.665 71.6049 105.881C73.8573 107.025 76.4367 107.597 79.343 107.597C82.1767 107.597 84.7198 106.989 86.9722 105.774C89.2246 104.558 90.9684 102.913 92.2036 100.839C93.4388 98.6935 94.0564 96.2619 94.0564 93.5443C94.0564 90.8266 93.4388 88.3951 92.2036 86.2495C90.9684 84.104 89.2609 82.4234 87.0812 81.2076C84.9014 79.9918 82.4674 79.3839 79.779 79.3839C77.5266 79.3839 75.3832 79.8488 73.3487 80.7785C71.3869 81.6367 69.6795 82.8167 68.2263 84.3186C66.7731 85.3913 65.7559 86.8932 65.1746 88.8242C64.7387 90.183 64.5207 92.0067 64.5207 94.2952Z" fill="#262626"/>
</svg>
