<svg width="900" height="904" viewBox="0 0 900 904" fill="none" xmlns="http://www.w3.org/2000/svg">
<g clip-path="url(#clip0_1433_72)">
<path d="M712.427 793.913H652.85C655.884 785.328 657.536 776.091 657.536 766.467H657.13C657.13 776.044 655.486 785.236 652.466 793.778L652.275 794.319H712.427C742.518 794.319 766.913 818.713 766.913 848.805H767.319C767.319 818.726 743.125 794.297 713.137 793.917L712.427 793.913ZM712.427 903.29H601.501C571.644 903.29 547.396 879.276 547.019 849.51L547.012 848.399H465.415C429.742 848.399 399.393 825.6 388.146 793.778L388.05 793.507H295.419C245.529 793.507 205.085 753.063 205.085 703.174V665.086C205.085 652.41 207.697 640.345 212.409 629.399L212.653 628.832H150.525V629.238C150.525 659.329 126.131 683.724 96.0396 683.724V684.536C126.131 684.536 150.525 708.93 150.525 739.021H150.931L150.927 738.312C150.547 708.323 126.118 684.13 96.0396 684.13C126.355 684.13 150.931 659.554 150.931 629.238H212.036C207.45 639.891 204.845 651.597 204.686 663.894L204.679 665.086V703.174L204.686 704.347C205.314 753.92 245.696 793.913 295.419 793.913H387.763C399.066 825.893 429.564 848.805 465.415 848.805H546.609L546.613 849.515C546.993 879.503 571.422 903.696 601.501 903.696H712.427L713.137 903.692C743.125 903.312 767.319 878.884 767.319 848.805H766.913C766.913 878.896 742.518 903.29 712.427 903.29ZM575.198 684.13H534.029V665.086H533.623V684.536H575.198C620.447 684.536 657.13 721.218 657.13 766.467H657.536L657.529 765.403C656.963 720.774 620.891 684.702 576.262 684.137L575.198 684.13ZM562.618 25.4289H452.835C407.362 25.4289 370.498 62.2927 370.498 107.766C370.498 117.39 372.149 126.628 375.183 135.212H315.606C285.29 135.212 260.715 159.789 260.715 190.105L260.719 190.814C261.099 220.803 285.527 244.996 315.606 244.996V244.59C285.515 244.59 261.121 220.196 261.121 190.105C261.121 160.013 285.515 135.619 315.606 135.618H375.757L375.566 135.077C372.547 126.536 370.904 117.343 370.904 107.766C370.904 62.5171 407.586 25.8349 452.835 25.8349H562.618C607.868 25.8349 644.55 62.5171 644.55 107.766H644.956L644.95 106.702C644.38 61.719 607.737 25.4289 562.618 25.4289ZM562.618 189.698H481.018V190.105C481.018 220.196 456.624 244.59 426.533 244.59V245.402C456.624 245.402 481.018 269.796 481.018 299.887H481.424L481.42 299.178C481.04 269.189 456.612 244.996 426.533 244.996C456.849 244.996 481.424 220.42 481.424 190.105H562.618L563.682 190.098C608.666 189.528 644.956 152.885 644.956 107.766H644.55C644.55 153.016 607.868 189.698 562.618 189.698ZM561.475 464.563H534.029V445.519H533.623V464.969H561.475C606.724 464.969 643.406 501.651 643.406 546.9H643.812C643.812 501.427 606.949 464.563 561.475 464.563ZM561.475 628.832H526.054L526.298 629.399C531.011 640.346 533.623 652.41 533.623 665.086H534.029L534.022 663.894C533.864 651.597 531.257 639.891 526.671 629.238H561.475C606.949 629.238 643.812 592.374 643.812 546.9H643.406C643.406 592.15 606.724 628.832 561.475 628.832ZM443.29 354.779H426.533C456.849 354.779 481.424 330.203 481.424 299.887H481.018C481.018 329.979 456.624 354.373 426.533 354.373V355.185H443.29C493.179 355.185 533.623 395.629 533.623 445.519H534.029L534.022 444.346C533.399 395.163 493.646 355.41 444.462 354.787L443.29 354.779ZM206.966 299.887C206.966 269.572 182.39 244.996 152.075 244.996H92.4973C95.5315 236.411 97.1832 227.173 97.1832 217.55H96.7772C96.7772 227.127 95.1333 236.319 92.1142 244.861L91.923 245.402H152.075C182.166 245.402 206.56 269.796 206.56 299.887V300.293H261.121V299.887C261.121 269.796 285.515 245.402 315.606 245.402V244.996C285.29 244.996 260.715 269.572 260.715 299.887H206.966ZM122.341 464.563C76.8678 464.563 40.0041 501.427 40.0041 546.9L40.009 547.801C40.1087 557.101 41.75 566.03 44.6894 574.346H-14.8874C-45.2032 574.346 -69.7794 598.922 -69.7794 629.238L-69.7751 629.948C-69.3952 659.936 -44.9663 684.13 -14.8874 684.13V683.724C-44.9789 683.724 -69.3734 659.329 -69.3734 629.238C-69.3734 599.146 -44.9788 574.753 -14.8874 574.753H45.2637L45.0725 574.211C42.0534 565.669 40.4101 556.477 40.4101 546.9C40.4101 501.651 77.0922 464.969 122.341 464.969H179.521V464.563H122.341ZM41.1476 354.373C11.2913 354.373 -12.9564 330.359 -13.3335 300.592L-13.3403 299.481H-94.9377C-140.187 299.481 -176.869 262.799 -176.869 217.55C-176.869 172.301 -140.187 135.618 -94.9377 135.618H14.8458C60.095 135.619 96.7771 172.301 96.7772 217.55H97.1832L97.1764 216.486C96.6111 171.857 60.5389 135.785 15.9099 135.219L14.8458 135.212H-94.9377C-140.411 135.212 -177.275 172.076 -177.275 217.55L-177.268 218.614C-176.699 263.597 -140.056 299.887 -94.9377 299.887H-13.7438L-13.7395 300.597C-13.3597 330.586 11.0686 354.779 41.1476 354.779H101.869C98.8344 363.364 97.1832 372.602 97.1832 382.225L97.19 383.29C97.7599 428.273 134.402 464.563 179.521 464.563V464.157L178.462 464.15C133.7 463.583 97.5893 427.121 97.5892 382.225C97.5892 372.649 99.2326 363.456 102.252 354.915L102.443 354.373H41.1476ZM96.0396 793.507H35.8874L36.0786 794.048C39.0977 802.59 40.7416 811.782 40.7416 821.359H41.1476L41.1426 820.458C41.0429 811.159 39.4011 802.229 36.4616 793.913H96.0396L96.7492 793.909C126.738 793.529 150.931 769.1 150.931 739.021H150.525C150.525 769.113 126.131 793.507 96.0396 793.507ZM-41.1899 903.29H-150.973C-196.223 903.29 -232.905 866.608 -232.905 821.359C-232.905 776.11 -196.223 739.428 -150.973 739.427H-69.3734V739.021C-69.3734 708.93 -44.9789 684.536 -14.8874 684.536V684.13C-44.9663 684.13 -69.3952 708.323 -69.7751 738.312L-69.7794 739.021H-150.973C-196.447 739.022 -233.311 775.885 -233.311 821.359C-233.311 866.833 -196.447 903.696 -150.973 903.696H-41.1899L-40.1258 903.69C4.85757 903.12 41.1476 866.477 41.1476 821.359H40.7416C40.7416 866.608 4.05953 903.29 -41.1899 903.29Z" fill="#262626"/>
<path d="M486.581 180.959V194.338H473.202V180.959H486.581Z" fill="#E25938"/>
<path d="M321.752 238.221V251.6H308.373V238.221H321.752Z" fill="#E25938"/>
<path d="M101.267 234.475V247.854H87.8882V234.475H101.267Z" fill="#E25938"/>
<path d="M541.167 457.1V470.479H527.788V457.1H541.167Z" fill="#E25938"/>
<path d="M433.065 349.533V362.912H419.686V349.533H433.065Z" fill="#7678F6"/>
<path d="M543.307 678.655V692.034H529.928V678.655H543.307Z" fill="#7678F6"/>
<path d="M222.748 621.929V635.308H209.369V621.929H222.748Z" fill="#7678F6"/>
<path d="M44.5295 787.027V800.406H31.1505V787.027H44.5295Z" fill="#7678F6"/>
<path d="M51.5224 567.066V580.445H38.1435V567.066H51.5224Z" fill="#7678F6"/>
<path d="M216.861 289.596V302.975H203.482V289.596H216.861Z" fill="#7678F6"/>
<path d="M382.225 127.978V141.357H368.846V127.978H382.225Z" fill="#7678F6"/>
<path d="M534.694 621.709L521.315 621.71L521.316 635.089L534.695 635.088L534.694 621.709Z" fill="#E25938"/>
<path d="M157.053 621.738L143.674 621.739L143.674 635.118L157.053 635.117L157.053 621.738Z" fill="#E25938"/>
<path d="M183.561 457.69L170.182 457.691L170.183 471.07L183.562 471.069L183.561 457.69Z" fill="#E25938"/>
<path d="M399.008 787.358L385.629 787.358L385.629 800.737L399.008 800.737L399.008 787.358Z" fill="#E25938"/>
<path d="M434.67 238.221V251.6H421.291V238.221H434.67Z" fill="#FF76BF"/>
<path d="M269.842 289.596V302.975H256.463V289.596H269.842Z" fill="#FF76BF"/>
<path d="M107.154 677.585V690.964H93.7749V677.585H107.154Z" fill="#FF76BF"/>
<path d="M552.405 838.133V851.512H539.026V838.133H552.405Z" fill="#FF76BF"/>
<path d="M661.577 786.222V799.601H648.198V786.222H661.577Z" fill="#FF76BF"/>
<path d="M110.365 348.463V361.842H96.9859V348.463H110.365Z" fill="#FF76BF"/>
<path d="M1457.25 320.608H1400.85C1403.72 312.482 1405.28 303.737 1405.28 294.627H1404.88C1404.88 303.69 1403.32 312.389 1400.47 320.473L1400.27 321.014H1457.25C1485.72 321.014 1508.8 344.097 1508.8 372.57H1509.21C1509.21 344.097 1486.31 320.972 1457.92 320.612L1457.25 320.608ZM1457.25 424.127H1352.24C1323.99 424.127 1301.05 401.403 1300.69 373.237L1300.68 372.164H1223.42C1189.66 372.164 1160.94 350.588 1150.29 320.473L1150.2 320.202H1062.49C1015.28 320.202 977.002 281.926 977.002 234.711V198.656C977.002 186.659 979.475 175.242 983.934 164.882L984.178 164.315H925.31V164.721C925.31 193.195 902.228 216.278 873.754 216.278V217.09C902.228 217.09 925.31 240.172 925.31 268.645H925.717C925.716 239.948 902.452 216.684 873.754 216.684C902.452 216.684 925.716 193.419 925.717 164.721H983.561C979.22 174.806 976.754 185.887 976.604 197.528L976.596 198.656V234.711L976.603 235.821C977.197 282.749 1015.42 320.608 1062.49 320.608H1149.91C1160.61 350.881 1189.48 372.57 1223.42 372.57H1300.28L1300.28 373.242C1300.64 401.63 1323.77 424.533 1352.24 424.533H1457.25L1457.92 424.528C1486.31 424.169 1509.21 401.044 1509.21 372.57H1508.8C1508.8 401.044 1485.72 424.127 1457.25 424.127ZM1327.34 216.684H1288.37V198.656H1287.96V217.09H1327.34C1370.16 217.09 1404.88 251.804 1404.88 294.627H1405.28L1405.28 293.619C1404.74 251.372 1370.6 217.225 1328.35 216.69L1327.34 216.684ZM1315.43 -406.864L1211.51 -406.864C1168.46 -406.864 1133.57 -371.967 1133.57 -328.92L1133.57 -328.067C1133.66 -319.264 1135.22 -310.811 1138 -302.939L1081.6 -302.939C1052.91 -302.939 1029.64 -279.674 1029.64 -250.976L1029.65 -250.305C1030 -221.917 1053.13 -199.015 1081.6 -199.015V-199.421L1080.94 -199.425C1052.77 -199.782 1030.05 -222.725 1030.05 -250.976C1030.05 -279.45 1053.13 -302.533 1081.6 -302.533L1138.57 -302.533L1138.38 -303.074C1135.53 -311.158 1133.97 -319.857 1133.97 -328.92C1133.97 -371.743 1168.69 -406.458 1211.51 -406.458L1315.43 -406.458C1358.26 -406.458 1392.97 -371.743 1392.97 -328.92H1393.38L1393.37 -329.928C1392.84 -372.175 1358.69 -406.322 1316.44 -406.857L1315.43 -406.864ZM1315.43 -251.383H1238.17V-250.976C1238.17 -222.503 1215.08 -199.421 1186.61 -199.421V-198.609C1215.08 -198.609 1238.17 -175.526 1238.17 -147.052H1238.57L1238.57 -147.724C1238.21 -176.112 1215.08 -199.015 1186.61 -199.015C1215.31 -199.015 1238.57 -222.279 1238.57 -250.976H1315.43L1316.44 -250.983C1359.02 -251.522 1393.38 -286.21 1393.38 -328.92H1392.97C1392.97 -286.098 1358.26 -251.383 1315.43 -251.383ZM1314.35 8.83482H1288.37V-9.1933H1287.96V9.24084H1314.35C1357.17 9.24084 1391.89 43.9555 1391.89 86.7781H1392.29C1392.29 44.0675 1357.94 9.38051 1315.36 8.84103L1314.35 8.83482ZM1314.35 164.315H1280.79L1281.03 164.882C1285.49 175.242 1287.96 186.659 1287.96 198.656H1288.37L1288.36 197.528C1288.21 185.887 1285.75 174.806 1281.4 164.721H1314.35L1315.36 164.715C1357.94 164.176 1392.29 129.489 1392.29 86.7781H1391.89C1391.89 129.601 1357.17 164.315 1314.35 164.315ZM1202.47 -95.0899H1186.61C1215.31 -95.0901 1238.57 -118.354 1238.57 -147.052H1238.17C1238.17 -118.579 1215.08 -95.4961 1186.61 -95.496V-94.6839H1202.47C1249.69 -94.6838 1287.96 -56.4083 1287.96 -9.1933H1288.37L1288.36 -10.3033C1287.77 -56.8617 1250.14 -94.4933 1203.58 -95.0831L1202.47 -95.0899ZM978.761 -147.052C978.761 -175.526 955.859 -198.651 927.471 -199.01L926.799 -199.015H870.401C873.273 -207.141 874.837 -215.886 874.837 -224.996H874.431C874.431 -215.933 872.875 -207.234 870.018 -199.15L869.827 -198.609H926.799C955.273 -198.609 978.355 -175.526 978.355 -147.052V-146.646L1030.05 -146.646V-147.052C1030.05 -175.526 1053.13 -198.609 1081.6 -198.609V-199.015C1052.91 -199.015 1029.64 -175.75 1029.64 -147.052L978.761 -147.052ZM898.653 8.83482C855.606 8.83482 820.709 43.7312 820.709 86.7781C820.709 95.888 822.273 104.633 825.145 112.759H768.747C740.049 112.759 716.785 136.023 716.785 164.721C716.785 193.419 740.049 216.684 768.747 216.684V216.278C740.274 216.278 717.191 193.195 717.191 164.721C717.191 136.248 740.274 113.165 768.747 113.165H825.719L825.528 112.624C822.671 104.54 821.115 95.8412 821.115 86.7781C821.115 43.9555 855.83 9.24084 898.653 9.24084H952.78V8.83482H898.653ZM821.792 -95.496C793.318 -95.496 770.235 -118.579 770.235 -147.052V-147.458H692.969C650.146 -147.458 615.431 -182.173 615.431 -224.996C615.431 -267.818 650.146 -302.533 692.969 -302.533H796.894C839.716 -302.533 874.431 -267.818 874.431 -224.996H874.837L874.831 -226.003C874.295 -268.25 840.148 -302.397 797.901 -302.933L796.894 -302.939H692.969C649.922 -302.939 615.025 -268.043 615.025 -224.996L615.032 -223.988C615.571 -181.405 650.258 -147.052 692.969 -147.052H769.829C769.829 -118.354 793.094 -95.09 821.792 -95.09H879.272C876.4 -86.9637 874.837 -78.2189 874.837 -69.1091L874.843 -68.1015C875.383 -25.5189 910.07 8.83482 952.78 8.83482V8.4288L951.778 8.42198C909.417 7.88548 875.243 -26.621 875.243 -69.1091C875.243 -78.1722 876.798 -86.8712 879.655 -94.9546L879.846 -95.496H821.792ZM873.754 320.202H816.782L816.973 320.743C819.83 328.827 821.386 337.526 821.386 346.589H821.792L821.787 345.736C821.693 336.933 820.139 328.48 817.356 320.608H873.754L874.426 320.604C902.814 320.244 925.717 297.119 925.717 268.645H925.31C925.31 297.119 902.228 320.202 873.754 320.202ZM743.848 424.127H639.924C597.101 424.127 562.386 389.412 562.386 346.589C562.386 303.767 597.101 269.052 639.924 269.052H717.191V268.645C717.191 240.172 740.274 217.09 768.747 217.09V216.684C740.049 216.684 716.785 239.948 716.785 268.645H639.924C596.877 268.646 561.98 303.543 561.98 346.589L561.987 347.597C562.526 390.179 597.213 424.533 639.924 424.533H743.848C786.895 424.533 821.792 389.636 821.792 346.589H821.386C821.386 389.412 786.671 424.127 743.848 424.127Z" fill="#262626"/>
<path d="M774.506 208.157V220.997H761.666V208.157H774.506Z" fill="#7678F6"/>
<path d="M723.658 261.059V273.9H710.817V261.059H723.658Z" fill="#E25938"/>
<path d="M831.004 104.406V117.246H818.164V104.406H831.004Z" fill="#E25938"/>
<path d="M878.6 209.789V223.168H865.221V209.789H878.6Z" fill="#FF76BF"/>
<path d="M824.563 313.412V326.791H811.184V313.412H824.563Z" fill="#FF76BF"/>
</g>
<defs>
<clipPath id="clip0_1433_72">
<rect width="900" height="904" fill="white"/>
</clipPath>
</defs>
</svg>
