<svg width="1400" height="583" viewBox="0 0 1400 583" fill="none" xmlns="http://www.w3.org/2000/svg">
<g clip-path="url(#clip0_1862_102)">
<path d="M806.919 1134.81L806.919 1135.38V1135.38L806.919 1134.81ZM946.797 994.791L947.371 994.791V994.791L946.797 994.791ZM946.797 911.818L946.223 911.818V911.818L946.797 911.818ZM806.919 771.801L806.919 771.226V771.226L806.919 771.801ZM577.554 771.801L577.554 772.375L577.146 772.375L577.012 771.99L577.554 771.801ZM463.546 681.31L463.485 681.881L463.485 680.739L463.546 681.31ZM585.186 545.7L585.761 545.7V545.7L585.186 545.7ZM577.185 499.547L576.644 499.741L576.368 498.973L577.185 498.973L577.185 499.547ZM674.811 499.547L674.811 500.121L674.811 499.547ZM765.474 408.795L766.048 408.795V408.795L765.474 408.795ZM765.47 408.276L764.895 408.28L764.892 407.702L765.47 407.702L765.47 408.276ZM901.207 408.276L901.207 408.851V408.851L901.207 408.276ZM1029.83 317.006L1029.28 316.816L1029.42 316.431L1029.83 316.431L1029.83 317.006ZM1260.23 317.006L1260.23 317.58L1260.23 317.006ZM1400.11 176.989L1400.68 176.989V176.989L1400.11 176.989ZM1400.11 94.0165L1400.68 94.0165V94.0165L1400.11 94.0165ZM1260.23 -46.0001L1260.23 -46.5743V-46.5743L1260.23 -46.0001ZM996.014 -46.0001L996.014 -45.4259V-45.4259L996.014 -46.0001ZM856.135 94.0165L855.56 94.0165V94.0165L856.135 94.0165ZM856.135 135.503L856.709 135.503L856.709 136.077L856.135 136.077L856.135 135.503ZM719.884 135.503L719.884 136.077V136.077L719.884 135.503ZM583.632 271.89L583.057 271.89V271.89L583.632 271.89ZM591.634 318.043L592.174 317.849L592.45 318.617L591.634 318.617L591.634 318.043ZM492.971 318.043L492.971 317.469L492.971 318.043ZM402.309 408.795L401.734 408.795V408.795L402.309 408.795ZM402.312 409.313L402.887 409.31L402.89 409.888L402.312 409.888L402.312 409.313ZM312.161 409.313L312.161 409.888L311.584 409.888L311.587 409.31L312.161 409.313ZM312.165 408.795L312.739 408.795V408.795L312.165 408.795ZM221.503 318.043L221.503 318.617L221.503 318.043ZM39.662 318.043L39.662 317.469L39.662 318.043ZM-51.0001 408.795L-51.5743 408.795V408.795L-51.0001 408.795ZM39.6621 499.547L39.6621 498.973L39.6621 499.547ZM139.361 499.547L139.361 498.973L140.178 498.973L139.902 499.741L139.361 499.547ZM131.359 545.7L130.785 545.7V545.7L131.359 545.7ZM252.997 681.31L253.058 680.739L253.058 681.881L252.997 681.31ZM131.359 816.918L130.785 816.918V816.918L131.359 816.918ZM267.611 953.305L267.611 953.879V953.879L267.611 953.305ZM402.826 953.305L402.826 952.73L403.4 952.73L403.4 953.305L402.826 953.305ZM402.826 994.791L402.252 994.791V994.791L402.826 994.791ZM542.705 1134.81L542.705 1135.38V1135.38L542.705 1134.81ZM806.919 1134.81L806.919 1134.23C883.854 1134.23 946.222 1071.8 946.223 994.791L946.797 994.791L947.371 994.791C947.371 1072.44 884.489 1135.38 806.919 1135.38L806.919 1134.81ZM946.797 994.791L946.223 994.791L946.223 911.818L946.797 911.818L947.371 911.818L947.371 994.791L946.797 994.791ZM946.797 911.818L946.223 911.818C946.223 834.806 883.854 772.375 806.919 772.375L806.919 771.801L806.919 771.226C884.489 771.226 947.371 834.173 947.371 911.818L946.797 911.818ZM806.919 771.801L806.919 772.375L577.554 772.375L577.554 771.801L577.554 771.226L806.919 771.226L806.919 771.801ZM577.554 771.801L577.012 771.99C560.021 723.456 516.277 687.515 463.485 681.881L463.546 681.31L463.607 680.739C516.849 686.421 560.962 722.667 578.096 771.611L577.554 771.801ZM463.546 681.31L463.485 680.739C531.575 673.472 584.612 615.787 584.612 545.7L585.186 545.7L585.761 545.7C585.761 616.38 532.275 674.552 463.607 681.881L463.546 681.31ZM585.186 545.7L584.612 545.7C584.612 529.568 581.8 514.094 576.644 499.741L577.185 499.547L577.725 499.353C582.925 513.829 585.761 529.433 585.761 545.7L585.186 545.7ZM577.185 499.547L577.185 498.973L674.811 498.973L674.811 499.547L674.811 500.121L577.185 500.121L577.185 499.547ZM674.811 499.547L674.811 498.973C724.565 498.973 764.899 458.599 764.899 408.795L765.474 408.795L766.048 408.795C766.048 459.232 725.2 500.121 674.811 500.121L674.811 499.547ZM765.474 408.795L764.899 408.795C764.899 408.621 764.896 408.464 764.895 408.28L765.47 408.276L766.044 408.273C766.045 408.435 766.048 408.622 766.048 408.795L765.474 408.795ZM765.47 408.276L765.47 407.702L901.207 407.702L901.207 408.276L901.207 408.851L765.47 408.851L765.47 408.276ZM901.207 408.276L901.207 407.702C960.409 407.702 1010.76 369.746 1029.28 316.816L1029.83 317.006L1030.37 317.196C1011.68 370.571 960.913 408.85 901.207 408.851L901.207 408.276ZM1029.83 317.006L1029.83 316.431L1260.23 316.431L1260.23 317.006L1260.23 317.58L1029.83 317.58L1029.83 317.006ZM1260.23 317.006L1260.23 316.431C1337.16 316.431 1399.53 254.002 1399.53 176.989L1400.11 176.989L1400.68 176.989C1400.68 254.635 1337.8 317.58 1260.23 317.58L1260.23 317.006ZM1400.11 176.989L1399.53 176.989L1399.53 94.0165L1400.11 94.0165L1400.68 94.0165L1400.68 176.989L1400.11 176.989ZM1400.11 94.0165L1399.53 94.0165C1399.53 17.0041 1337.16 -45.4259 1260.23 -45.4259L1260.23 -46.0001L1260.23 -46.5743C1337.8 -46.5743 1400.68 16.3708 1400.68 94.0165L1400.11 94.0165ZM1260.23 -46.0001L1260.23 -45.4259L996.014 -45.4259L996.014 -46.0001L996.014 -46.5743L1260.23 -46.5743L1260.23 -46.0001ZM996.014 -46.0001L996.014 -45.4259C919.079 -45.4259 856.709 17.0041 856.709 94.0165L856.135 94.0165L855.56 94.0165C855.56 16.3709 918.443 -46.5743 996.014 -46.5743L996.014 -46.0001ZM856.135 94.0165L856.709 94.0165L856.709 135.503L856.135 135.503L855.56 135.503L855.56 94.0165L856.135 94.0165ZM856.135 135.503L856.135 136.077L719.884 136.077L719.884 135.503L719.884 134.929L856.135 134.929L856.135 135.503ZM719.884 135.503L719.884 136.077C644.952 136.077 584.206 196.882 584.206 271.89L583.632 271.89L583.057 271.89C583.058 196.249 644.316 134.929 719.884 134.929L719.884 135.503ZM583.632 271.89L584.206 271.89C584.206 288.022 587.018 303.495 592.174 317.849L591.634 318.043L591.093 318.237C585.893 303.761 583.057 288.156 583.057 271.89L583.632 271.89ZM591.634 318.043L591.634 318.617L492.971 318.617L492.971 318.043L492.971 317.469L591.634 317.469L591.634 318.043ZM492.971 318.043L492.971 318.617C443.217 318.617 402.883 358.991 402.883 408.795L402.309 408.795L401.734 408.795C401.734 358.358 442.582 317.469 492.971 317.469L492.971 318.043ZM402.309 408.795L402.883 408.795C402.883 408.968 402.886 409.126 402.887 409.31L402.312 409.313L401.738 409.317C401.737 409.155 401.734 408.967 401.734 408.795L402.309 408.795ZM402.312 409.313L402.312 409.888L312.161 409.888L312.161 409.313L312.161 408.739L402.312 408.739L402.312 409.313ZM312.161 409.313L311.587 409.31C311.588 409.126 311.591 408.968 311.591 408.795L312.165 408.795L312.739 408.795C312.739 408.967 312.736 409.155 312.735 409.317L312.161 409.313ZM312.165 408.795L311.591 408.795C311.591 358.991 271.256 318.617 221.503 318.617L221.503 318.043L221.503 317.469C271.892 317.469 312.739 358.358 312.739 408.795L312.165 408.795ZM221.503 318.043L221.503 318.617L39.662 318.617L39.662 318.043L39.662 317.469L221.503 317.469L221.503 318.043ZM39.662 318.043L39.662 318.617C-10.0913 318.617 -50.4258 358.991 -50.4258 408.795L-51.0001 408.795L-51.5743 408.795C-51.5743 358.358 -10.7267 317.469 39.662 317.469L39.662 318.043ZM-51.0001 408.795L-50.4258 408.795C-50.4258 458.599 -10.0913 498.973 39.6621 498.973L39.6621 499.547L39.6621 500.121C-10.7267 500.121 -51.5743 459.232 -51.5743 408.795L-51.0001 408.795ZM39.6621 499.547L39.6621 498.973L139.361 498.973L139.361 499.547L139.361 500.121L39.6621 500.121L39.6621 499.547ZM139.361 499.547L139.902 499.741C134.746 514.094 131.934 529.568 131.934 545.7L131.359 545.7L130.785 545.7C130.785 529.433 133.621 513.829 138.821 499.353L139.361 499.547ZM131.359 545.7L131.934 545.7C131.934 615.786 184.97 673.471 253.058 680.739L252.997 681.31L252.936 681.881C184.269 674.551 130.785 616.379 130.785 545.7L131.359 545.7ZM252.997 681.31L253.058 681.881C184.97 689.149 131.934 746.832 131.934 816.918L131.359 816.918L130.785 816.918C130.785 746.24 184.269 688.068 252.936 680.739L252.997 681.31ZM131.359 816.918L131.934 816.918C131.934 891.925 192.679 952.73 267.611 952.73L267.611 953.305L267.611 953.879C192.044 953.879 130.785 892.559 130.785 816.918L131.359 816.918ZM267.611 953.305L267.611 952.73L402.826 952.73L402.826 953.305L402.826 953.879L267.611 953.879L267.611 953.305ZM402.826 953.305L403.4 953.305L403.4 994.791L402.826 994.791L402.252 994.791L402.252 953.305L402.826 953.305ZM402.826 994.791L403.4 994.791C403.401 1071.8 465.77 1134.23 542.705 1134.23L542.705 1134.81L542.705 1135.38C465.135 1135.38 402.252 1072.44 402.252 994.791L402.826 994.791ZM542.705 1134.81L542.705 1134.23L806.919 1134.23L806.919 1134.81L806.919 1135.38L542.705 1135.38L542.705 1134.81Z" fill="#262626"/>
<rect x="301" y="398" width="21" height="21" fill="#FF76BF"/>
<rect x="393" y="398" width="21" height="21" fill="#E25938"/>
<rect x="128" y="490" width="21" height="21" fill="#E25938"/>
<rect x="567" y="490" width="21" height="21" fill="#B78F75"/>
<rect x="581" y="306" width="21" height="21" fill="#FF76BF"/>
<rect x="756" y="399" width="21" height="21" fill="#FF76BF"/>
<rect x="1019" y="306" width="21" height="21" fill="#E25938"/>
<rect x="845" y="123" width="21" height="21" fill="#B78F75"/>
</g>
<defs>
<clipPath id="clip0_1862_102">
<rect width="1400" height="583" fill="white"/>
</clipPath>
</defs>
</svg>
