<svg width="1440" height="1422" viewBox="0 0 1440 1422" fill="none" xmlns="http://www.w3.org/2000/svg">
<g clip-path="url(#clip0_1417_63)">
<path d="M1119.65 1248.83H1025.94C1030.71 1235.33 1033.31 1220.8 1033.31 1205.66H1032.67C1032.67 1220.72 1030.08 1235.18 1025.34 1248.62L1025.03 1249.47H1119.65C1166.99 1249.47 1205.36 1287.84 1205.36 1335.18H1206C1206 1287.86 1167.94 1249.44 1120.77 1248.84L1119.65 1248.83ZM1119.65 1420.88H945.166C898.202 1420.88 860.059 1383.11 859.466 1336.29L859.455 1334.54H731.101C674.988 1334.54 627.249 1298.68 609.556 1248.62L609.406 1248.19H463.696C385.219 1248.19 321.6 1184.58 321.6 1106.1V1046.19C321.6 1026.25 325.709 1007.27 333.122 990.05L333.506 989.158H235.777V989.797C235.777 1037.13 197.405 1075.5 150.071 1075.5V1076.78C197.405 1076.78 235.777 1115.15 235.777 1162.49H236.416L236.409 1161.37C235.811 1114.2 197.385 1076.14 150.071 1076.14C197.758 1076.14 236.416 1037.48 236.416 989.797H332.535C325.321 1006.55 321.223 1024.97 320.973 1044.31L320.962 1046.19V1106.1L320.973 1107.94C321.961 1185.92 385.482 1248.83 463.696 1248.83H608.954C626.734 1299.14 674.708 1335.18 731.101 1335.18H858.82L858.827 1336.29C859.425 1383.47 897.851 1421.52 945.166 1421.52H1119.65L1120.77 1421.52C1167.94 1420.92 1206 1382.49 1206 1335.18H1205.36C1205.36 1382.51 1166.99 1420.88 1119.65 1420.88ZM903.792 1076.14H839.033V1046.19H838.394V1076.78H903.792C974.969 1076.78 1032.67 1134.48 1032.67 1205.66H1033.31L1033.3 1203.99C1032.41 1133.78 975.668 1077.04 905.466 1076.15L903.792 1076.14ZM884.004 40H711.314C639.784 40 581.797 97.9871 581.797 169.518C581.797 184.655 584.393 199.187 589.166 212.69H495.451C447.764 212.691 409.106 251.349 409.106 299.036L409.113 300.152C409.711 347.325 448.137 385.381 495.451 385.381V384.742C448.117 384.742 409.745 346.37 409.745 299.036C409.745 251.702 448.117 213.329 495.451 213.329H590.069L589.768 212.478C585.019 199.042 582.435 184.582 582.435 169.518C582.436 98.34 640.137 40.6387 711.314 40.6387H884.004C955.181 40.6387 1012.88 98.34 1012.88 169.518H1013.52L1013.51 167.844C1012.61 97.0847 954.975 40 884.004 40ZM884.004 298.397H755.646V299.036C755.646 346.37 717.274 384.742 669.94 384.742V386.02C717.274 386.02 755.646 424.392 755.646 471.726H756.285L756.278 470.609C755.68 423.437 717.254 385.381 669.94 385.381C717.627 385.381 756.285 346.723 756.285 299.036H884.004L885.677 299.025C956.437 298.129 1013.52 240.489 1013.52 169.518H1012.88C1012.88 240.695 955.181 298.397 884.004 298.397ZM882.205 730.762H839.033V700.805H838.394V731.4H882.205C953.383 731.4 1011.08 789.102 1011.08 860.279H1011.72C1011.72 788.749 953.735 730.762 882.205 730.762ZM882.205 989.158H826.488L826.872 990.05C834.285 1007.27 838.394 1026.25 838.394 1046.19H839.033L839.021 1044.31C838.772 1024.97 834.673 1006.55 827.459 989.797H882.205C953.735 989.797 1011.72 931.81 1011.72 860.279H1011.08C1011.08 931.457 953.383 989.158 882.205 989.158ZM696.299 558.071H669.94C717.627 558.071 756.285 519.413 756.285 471.726H755.646C755.646 519.06 717.274 557.433 669.94 557.433V558.71H696.299C774.775 558.71 838.394 622.328 838.394 700.805H839.033L839.021 698.96C838.041 621.595 775.509 559.063 698.143 558.083L696.299 558.071ZM324.559 471.726C324.559 424.039 285.902 385.381 238.215 385.381H144.499C149.272 371.877 151.87 357.346 151.87 342.208H151.231C151.231 357.272 148.645 371.732 143.896 385.168L143.596 386.02H238.215C285.549 386.02 323.921 424.392 323.921 471.726V472.364H409.745V471.726C409.745 424.392 448.117 386.02 495.451 386.02V385.381C447.764 385.381 409.107 424.039 409.106 471.726H324.559ZM191.444 730.762C119.914 730.762 61.9267 788.749 61.9267 860.279L61.9345 861.696C62.0913 876.324 64.6731 890.37 69.2968 903.452H-24.418C-72.1051 903.452 -110.764 942.11 -110.764 989.797L-110.757 990.913C-110.159 1038.09 -71.7325 1076.14 -24.4181 1076.14V1075.5C-71.7522 1075.5 -110.125 1037.13 -110.125 989.797C-110.125 942.463 -71.7522 904.091 -24.418 904.091H70.2001L69.8994 903.239C65.1503 889.803 62.5654 875.344 62.5654 860.279C62.5653 789.102 120.267 731.401 191.444 731.4H281.388V730.762H191.444ZM63.7255 557.433C16.7613 557.432 -21.3806 519.657 -21.9737 472.834L-21.9844 471.087H-150.338C-221.516 471.087 -279.217 413.386 -279.217 342.208C-279.217 271.03 -221.515 213.329 -150.338 213.329H22.3525C93.5299 213.329 151.231 271.031 151.231 342.208H151.87L151.859 340.534C150.97 270.332 94.2282 213.591 24.0263 212.701L22.3525 212.69H-150.338C-221.868 212.69 -279.855 270.677 -279.855 342.208L-279.845 343.882C-278.949 414.641 -221.31 471.726 -150.338 471.726H-22.6192L-22.6124 472.842C-22.015 520.015 16.411 558.071 63.7255 558.071H159.24C154.467 571.575 151.87 586.106 151.87 601.244L151.881 602.918C152.777 673.677 210.416 730.762 281.388 730.762V730.123L279.721 730.112C209.312 729.22 152.509 671.866 152.509 601.244C152.509 586.18 155.094 571.72 159.843 558.284L160.143 557.433H63.7255ZM150.071 1248.19H55.4511L55.7519 1249.04C60.501 1262.48 63.0868 1276.94 63.0868 1292H63.7255L63.7177 1290.59C63.5608 1275.96 60.9783 1261.91 56.3544 1248.83H150.071L151.187 1248.83C198.36 1248.23 236.416 1209.8 236.416 1162.49H235.777C235.777 1209.82 197.405 1248.19 150.071 1248.19ZM-65.7921 1420.88H-238.482C-309.66 1420.88 -367.361 1363.18 -367.361 1292C-367.361 1220.83 -309.66 1163.13 -238.482 1163.13H-110.125V1162.49C-110.125 1115.15 -71.7522 1076.78 -24.4181 1076.78V1076.14C-71.7325 1076.14 -110.159 1114.2 -110.757 1161.37L-110.764 1162.49H-238.482C-310.013 1162.49 -368 1220.47 -368 1292C-368 1363.54 -310.013 1421.52 -238.482 1421.52H-65.7921L-64.1182 1421.51C6.64096 1420.62 63.7255 1362.98 63.7255 1292H63.0868C63.0868 1363.18 5.38564 1420.88 -65.7921 1420.88Z" fill="#262626"/>
<path d="M764.396 284.65V305.695H743.35V284.65H764.396Z" fill="#E25938"/>
<path d="M505.119 374.723V395.769H484.074V374.723H505.119Z" fill="#E25938"/>
<path d="M158.294 368.831V389.876H137.249V368.831H158.294Z" fill="#E25938"/>
<path d="M850.26 719.023V740.068H829.215V719.023H850.26Z" fill="#E25938"/>
<path d="M680.215 549.819V570.865H659.17V549.819H680.215Z" fill="#7678F6"/>
<path d="M853.627 1067.53V1088.58H832.582V1067.53H853.627Z" fill="#7678F6"/>
<path d="M349.384 978.3V999.345H328.339V978.3H349.384Z" fill="#7678F6"/>
<path d="M69.0452 1238V1259.05H48V1238H69.0452Z" fill="#7678F6"/>
<path d="M80.0452 892V913.045H59V892H80.0452Z" fill="#7678F6"/>
<path d="M340.124 455.537V476.582H319.079V455.537H340.124Z" fill="#7678F6"/>
<path d="M600.243 201.311V222.356H579.198V201.311H600.243Z" fill="#7678F6"/>
<path d="M840.079 977.954L819.034 977.955L819.034 999L840.079 999L840.079 977.954Z" fill="#E25938"/>
<path d="M246.045 978L225 978L225.001 999.046L246.046 999.045L246.045 978Z" fill="#E25938"/>
<path d="M287.744 719.951L266.698 719.952L266.699 740.997L287.744 740.996L287.744 719.951Z" fill="#E25938"/>
<path d="M626.643 1238.52L605.598 1238.52L605.599 1259.57L626.644 1259.57L626.643 1238.52Z" fill="#E25938"/>
<path d="M682.74 374.723V395.769H661.695V374.723H682.74Z" fill="#FF76BF"/>
<path d="M423.464 455.537V476.582H402.418V455.537H423.464Z" fill="#FF76BF"/>
<path d="M167.554 1065.85V1086.89H146.509V1065.85H167.554Z" fill="#FF76BF"/>
<path d="M867.938 1318.39V1339.44H846.893V1318.39H867.938Z" fill="#FF76BF"/>
<path d="M1039.67 1236.73V1257.78H1018.62V1236.73H1039.67Z" fill="#FF76BF"/>
<path d="M172.605 548.136V569.181H151.56V548.136H172.605Z" fill="#FF76BF"/>
<path d="M2291.26 504.319H2202.55C2207.07 491.536 2209.53 477.781 2209.53 463.451H2208.89C2208.89 477.707 2206.44 491.391 2201.95 504.106L2201.64 504.958H2291.26C2336.05 504.958 2372.36 541.267 2372.36 586.056H2373C2373 541.267 2336.97 504.892 2292.32 504.326L2291.26 504.319ZM2291.26 667.155H2126.09C2081.65 667.155 2045.56 631.411 2044.99 587.105L2044.98 585.418H1923.45C1870.34 585.418 1825.16 551.478 1808.42 504.106L1808.27 503.68H1670.31C1596.04 503.68 1535.83 443.473 1535.83 369.203V312.487C1535.83 293.617 1539.72 275.657 1546.74 259.361L1547.12 258.47H1454.52V259.108C1454.52 303.897 1418.21 340.207 1373.42 340.207V341.484C1418.21 341.484 1454.52 377.793 1454.52 422.582H1455.16C1455.16 377.44 1418.56 340.846 1373.42 340.846C1418.57 340.846 1455.16 304.25 1455.16 259.108H1546.15C1539.32 274.971 1535.44 292.402 1535.21 310.713L1535.19 312.487V369.203L1535.21 370.949C1536.14 444.767 1596.27 504.319 1670.31 504.319H1807.82C1824.65 551.939 1870.06 586.056 1923.45 586.056H2044.35L2044.36 587.113C2044.92 631.768 2081.3 667.794 2126.09 667.794H2291.26L2292.32 667.787C2336.97 667.221 2373 630.846 2373 586.056H2372.36C2372.36 630.846 2336.05 667.155 2291.26 667.155ZM2086.92 340.846H2025.62V312.487H2024.98V341.484H2086.92C2154.28 341.484 2208.89 396.091 2208.89 463.451H2209.53L2209.52 461.866C2208.67 395.411 2154.96 341.697 2088.51 340.855L2086.92 340.846ZM2068.19 -640L1904.71 -640C1837 -640 1782.11 -585.107 1782.11 -517.395L1782.12 -516.053C1782.26 -502.206 1784.71 -488.909 1789.09 -476.525L1700.37 -476.525C1655.23 -476.525 1618.63 -439.93 1618.63 -394.788L1618.64 -393.732C1619.21 -349.077 1655.58 -313.052 1700.37 -313.052V-313.69L1699.32 -313.697C1655.02 -314.258 1619.27 -350.349 1619.27 -394.788C1619.27 -439.577 1655.58 -475.887 1700.37 -475.887L1789.99 -475.887L1789.69 -476.738C1785.19 -489.454 1782.75 -503.138 1782.75 -517.395C1782.75 -584.755 1837.35 -639.361 1904.71 -639.361L2068.19 -639.361C2135.55 -639.361 2190.16 -584.755 2190.16 -517.395H2190.79L2190.78 -518.979C2189.94 -585.435 2136.23 -639.148 2069.77 -639.99L2068.19 -640ZM2068.19 -395.427H1946.65V-394.788C1946.65 -349.999 1910.34 -313.691 1865.55 -313.69V-312.413C1910.34 -312.413 1946.65 -276.104 1946.65 -231.315H1947.29L1947.28 -232.371C1946.71 -277.026 1910.34 -313.052 1865.55 -313.052C1910.69 -313.052 1947.29 -349.646 1947.29 -394.788H2068.19L2069.77 -394.798C2136.76 -395.647 2190.79 -450.21 2190.79 -517.395H2190.16C2190.16 -450.034 2135.55 -395.427 2068.19 -395.427ZM2066.49 13.8973H2025.62V-14.4611H2024.98V14.536H2066.49C2133.85 14.536 2188.45 69.1425 2188.45 136.503H2189.09C2189.09 69.3187 2135.05 14.7557 2068.07 13.9071L2066.49 13.8973ZM2066.49 258.47H2013.69L2014.07 259.361C2021.09 275.657 2024.98 293.617 2024.98 312.487H2025.62L2025.61 310.713C2025.37 292.402 2021.49 274.971 2014.66 259.108H2066.49L2068.07 259.098C2135.05 258.25 2189.09 203.687 2189.09 136.503H2188.45C2188.45 203.863 2133.85 258.47 2066.49 258.47ZM1890.5 -149.577H1865.55C1910.69 -149.577 1947.29 -186.172 1947.29 -231.315H1946.65C1946.65 -186.525 1910.34 -150.216 1865.55 -150.216V-148.939H1890.5C1964.77 -148.938 2024.98 -88.7306 2024.98 -14.4611H2025.62L2025.61 -16.2072C2024.68 -89.4438 1965.48 -148.639 1892.25 -149.566L1890.5 -149.577ZM1538.6 -231.315C1538.6 -276.104 1502.58 -312.479 1457.92 -313.045L1456.86 -313.052H1368.15C1372.67 -325.835 1375.13 -339.59 1375.13 -353.92H1374.49C1374.49 -339.664 1372.04 -325.98 1367.55 -313.265L1367.25 -312.413H1456.86C1501.65 -312.413 1537.96 -276.104 1537.96 -231.315V-230.676L1619.27 -230.676V-231.315C1619.27 -276.104 1655.58 -312.413 1700.37 -312.413V-313.052C1655.23 -313.052 1618.63 -276.456 1618.63 -231.315L1538.6 -231.315ZM1412.59 13.8973C1344.88 13.8973 1289.98 68.7896 1289.98 136.503C1289.98 150.833 1292.44 164.588 1296.96 177.371H1208.25C1163.1 177.371 1126.51 213.966 1126.51 259.108C1126.51 304.25 1163.1 340.846 1208.25 340.846V340.207C1163.46 340.207 1127.15 303.897 1127.15 259.108C1127.15 214.319 1163.46 178.01 1208.25 178.01H1297.86L1297.56 177.158C1293.07 164.443 1290.62 150.759 1290.62 136.503C1290.62 69.1425 1345.23 14.536 1412.59 14.536H1497.73V13.8973H1412.59ZM1291.69 -150.216C1246.9 -150.216 1210.59 -186.525 1210.59 -231.315V-231.953H1089.05C1021.69 -231.953 967.079 -286.56 967.079 -353.92C967.079 -421.28 1021.69 -475.887 1089.05 -475.887H1252.52C1319.88 -475.887 1374.49 -421.28 1374.49 -353.92H1375.13L1375.12 -355.505C1374.27 -421.96 1320.56 -475.674 1254.11 -476.516L1252.52 -476.525H1089.05C1021.33 -476.525 966.44 -421.633 966.44 -353.92L966.45 -352.335C967.299 -285.352 1021.86 -231.315 1089.05 -231.315H1209.95C1209.95 -186.172 1246.54 -149.577 1291.69 -149.577H1382.1C1377.58 -136.795 1375.13 -123.039 1375.13 -108.709L1375.14 -107.124C1375.98 -40.1414 1430.55 13.8973 1497.73 13.8973V13.2587L1496.16 13.2479C1429.52 12.404 1375.76 -41.875 1375.76 -108.709C1375.76 -122.965 1378.21 -136.649 1382.71 -149.364L1383.01 -150.216H1291.69ZM1373.42 503.68H1283.8L1284.11 504.532C1288.6 517.247 1291.05 530.932 1291.05 545.188H1291.69L1291.68 543.846C1291.53 529.999 1289.09 516.703 1284.71 504.319H1373.42L1374.48 504.312C1419.13 503.746 1455.16 467.371 1455.16 422.582H1454.52C1454.52 467.371 1418.21 503.68 1373.42 503.68ZM1169.08 667.155H1005.61C938.245 667.155 883.639 612.548 883.639 545.188C883.639 477.828 938.245 423.221 1005.61 423.22H1127.15V422.582C1127.15 377.793 1163.46 341.484 1208.25 341.484V340.846C1163.1 340.846 1126.51 377.44 1126.51 422.582H1005.61C937.892 422.582 883 477.475 883 545.188L883.01 546.773C883.859 613.756 938.422 667.794 1005.61 667.794H1169.08C1236.79 667.794 1291.69 612.901 1291.69 545.188H1291.05C1291.05 612.548 1236.44 667.155 1169.08 667.155Z" fill="#262626"/>
<path d="M1217.3 327.432V347.631H1197.11V327.432H1217.3Z" fill="#7678F6"/>
<path d="M1137.32 410.649V430.847H1117.12V410.649H1137.32Z" fill="#E25938"/>
<path d="M1306.18 164.231V184.429H1285.98V164.231H1306.18Z" fill="#E25938"/>
<path d="M1381.05 330V351.045H1360V330H1381.05Z" fill="#FF76BF"/>
<path d="M1296.05 493V514.045H1275V493H1296.05Z" fill="#FF76BF"/>
</g>
<defs>
<clipPath id="clip0_1417_63">
<rect width="1441" height="1422" fill="white" transform="translate(-1)"/>
</clipPath>
</defs>
</svg>
