<svg width="89" height="87" viewBox="0 0 89 87" fill="none" xmlns="http://www.w3.org/2000/svg">
<rect width="88.8529" height="86.3046" fill="#FF76BF"/>
<path d="M13.7081 70.2348C13.7081 71.0444 13.9408 71.6835 14.4063 72.1522C14.8717 72.6209 15.5064 72.8552 16.3103 72.8552H26.3382C27.1633 72.8552 27.8086 72.6528 28.274 72.2481C28.7183 71.8433 28.9299 71.2787 28.9087 70.5544V70.3307C28.9299 69.3507 28.5702 68.5944 27.8297 68.0618C27.0681 67.5292 26.0738 67.2629 24.8467 67.2629H22.9744C21.959 67.2629 21.1233 66.9327 20.4675 66.2723C19.8116 65.6119 19.4837 64.7704 19.4837 63.7478L19.4837 22.5566C19.4837 21.5128 19.8116 20.6713 20.4675 20.0321C21.1233 19.3717 21.959 19.0415 22.9744 19.0415H24.8467C26.0949 19.0415 27.0893 18.7752 27.8297 18.2426C28.5702 17.71 28.9404 16.9537 28.9404 15.9737V15.75C28.9404 15.0257 28.7077 14.4612 28.2423 14.0564C27.7769 13.6516 27.1422 13.4492 26.3382 13.4492L16.3103 13.4492C15.5064 13.4492 14.8717 13.6516 14.4063 14.0564C13.9408 14.4612 13.7081 15.0257 13.7081 15.75L13.7081 70.2348Z" fill="#262626"/>
<path d="M50.9208 48.4834C49.4638 48.4834 48.1525 48.2719 46.9868 47.8487C45.8212 47.3833 44.4474 46.5794 42.8655 45.437C41.908 44.8023 41.0963 44.358 40.4302 44.1041C39.8057 43.8079 39.1605 43.6599 38.4944 43.6599C37.6618 43.6599 36.9541 43.9349 36.3713 44.4849C35.7885 45.035 35.2265 45.9024 34.6853 47.0871C34.269 47.9757 33.5821 48.4199 32.6246 48.4199C32.4165 48.4199 32.1043 48.3776 31.688 48.293L29.9395 47.8487C29.2735 47.6795 28.9404 47.2775 28.9404 46.6428C28.9404 46.389 28.9612 46.1986 29.0029 46.0716C30.7097 40.5711 33.6862 37.8208 37.9324 37.8208C39.3894 37.8208 40.7008 38.0535 41.8664 38.5189C43.032 38.9421 44.4058 39.7248 45.9877 40.8673C46.9452 41.5019 47.7362 41.9674 48.3606 42.2636C49.0267 42.5174 49.6927 42.6444 50.3588 42.6444C51.1914 42.6444 51.8783 42.3905 52.4195 41.8828C53.0023 41.3327 53.5643 40.4441 54.1055 39.2171C54.5218 38.2862 55.2295 37.8208 56.2286 37.8208C56.6449 37.8208 56.9571 37.8631 57.1652 37.9477L58.9137 38.4555C59.5798 38.667 59.9128 39.069 59.9128 39.6614C59.9128 39.7883 59.8712 40.021 59.7879 40.3595C58.8721 43.1098 57.6856 45.1619 56.2286 46.5159C54.7715 47.8276 53.0023 48.4834 50.9208 48.4834Z" fill="#262626"/>
<path d="M75.145 70.2348C75.145 71.0444 74.9123 71.6835 74.4469 72.1522C73.9814 72.6209 73.3468 72.8552 72.5428 72.8552H62.5149C61.6898 72.8552 61.0446 72.6528 60.5791 72.2481C60.1349 71.8433 59.9233 71.2787 59.9445 70.5544V70.3307C59.9233 69.3507 60.2829 68.5944 61.0234 68.0618C61.785 67.5292 62.7794 67.2629 64.0064 67.2629H65.8787C66.8942 67.2629 67.7299 66.9327 68.3857 66.2723C69.0415 65.6119 69.3694 64.7704 69.3694 63.7478L69.3694 22.5566C69.3694 21.5128 69.0415 20.6713 68.3857 20.0321C67.7299 19.3717 66.8942 19.0415 65.8787 19.0415H64.0064C62.7582 19.0415 61.7639 18.7752 61.0234 18.2426C60.2829 17.71 59.9127 16.9537 59.9127 15.9737V15.75C59.9127 15.0257 60.1454 14.4612 60.6109 14.0564C61.0763 13.6516 61.711 13.4492 62.5149 13.4492L72.5428 13.4492C73.3468 13.4492 73.9814 13.6516 74.4469 14.0564C74.9123 14.4612 75.145 15.0257 75.145 15.75L75.145 70.2348Z" fill="#262626"/>
</svg>
