<svg width="86" height="86" viewBox="0 0 86 86" fill="none" xmlns="http://www.w3.org/2000/svg">
<rect width="86" height="86" fill="#FF76BF"/>
<g clip-path="url(#clip0_1764_539)">
<path d="M53.4073 36.5401L49.4599 32.5927L23.4583 58.5942V62.5417H27.4057L53.4073 36.5401ZM57.3547 32.5927L61.3022 28.6452L57.3547 24.6978L53.4073 28.6452L57.3547 32.5927ZM29.7172 68.125H17.875V56.2799L55.381 18.7739C55.9046 18.2505 56.6145 17.9565 57.3547 17.9565C58.095 17.9565 58.8049 18.2505 59.3285 18.7739L67.2261 26.6715C67.7494 27.195 68.0434 27.905 68.0434 28.6452C68.0434 29.3855 67.7494 30.0954 67.2261 30.6189L29.7172 68.125Z" fill="#262626"/>
</g>
<defs>
<clipPath id="clip0_1764_539">
<rect width="67" height="67" fill="white" transform="translate(9.5 9.5)"/>
</clipPath>
</defs>
</svg>
