<svg width="189" height="37" viewBox="0 0 189 37" fill="none" xmlns="http://www.w3.org/2000/svg">
<path d="M115.278 32.2715C115.406 32.5637 115.338 36.2184 115.332 36.7528L0.127326 36.7595C0.0750351 35.3659 0.116714 33.7179 0.116319 32.3048L85.9327 32.2962C95.6229 32.2962 105.605 32.4242 115.278 32.2715Z" fill="#00214F"/>
<path d="M112.734 0.0946036C119.006 -0.538457 124.6 4.04161 125.214 10.3132C125.828 16.5846 121.228 22.162 114.953 22.7566C108.703 23.3487 103.153 18.7758 102.541 12.5313C101.93 6.28689 106.488 0.724937 112.734 0.0946036ZM114.253 18.238C118.013 18.0271 120.894 14.8154 120.694 11.0566C120.494 7.29774 117.29 4.40905 113.528 4.59753C109.751 4.78682 106.847 8.00648 107.048 11.7811C107.248 15.5558 110.478 18.4498 114.253 18.238Z" fill="#00214F"/>
<path d="M0 0.438838L4.67148 0.430629C8.78415 0.422853 13.7818 0.35168 14.0684 5.82283C14.1636 7.63907 13.757 8.61552 12.5535 9.96842C12.6251 10.019 12.6959 10.0707 12.7662 10.123C15.7792 12.374 16.4477 16.4283 14.1863 19.4512C11.8218 22.5912 8.48404 22.4402 4.97057 22.4289C3.31429 22.4165 1.65791 22.4196 0.00167841 22.4381L0 0.438838ZM4.62994 18.3036C6.48472 18.3226 8.64071 18.6186 10.0901 17.4791C10.9425 16.2666 11.1747 14.151 9.78208 13.2108C8.53054 12.366 6.14671 12.6174 4.62908 12.6442L4.62994 18.3036ZM4.63166 8.6314C5.82452 8.63357 7.2253 8.70965 8.36233 8.3939C8.64999 8.21944 8.99866 7.99322 9.12225 7.66149C10.2247 4.70273 7.71405 4.50634 5.58922 4.54911C5.32167 4.55178 4.88952 4.52423 4.67358 4.64764C4.55692 5.35835 4.63403 7.7392 4.63166 8.6314Z" fill="#00214F"/>
<path d="M73.4129 0C75.1746 1.38889 77.0708 3.05216 78.8014 4.50505L89.0495 13.1032L89.0481 0.43952L93.6791 0.42986L93.6729 22.8125C93.0184 22.4186 89.702 19.5455 88.9006 18.8771L78.0163 9.82904L78.0243 22.4186L73.4113 22.4344L73.4129 0Z" fill="#00214F"/>
<path d="M45.0009 0.438558L49.6155 0.432647C49.6115 0.55437 49.6088 0.676123 49.6072 0.797886C49.5778 3.41896 49.6112 6.05447 49.602 8.67763C49.6269 10.6893 49.4822 12.7011 49.785 14.6909C50.5392 19.6479 58.5401 19.6991 59.2109 14.6426C59.4606 12.7594 59.3754 11.0978 59.3751 9.22635L59.3664 0.437561L63.987 0.431641L63.9887 4.64841L63.9935 9.94726C63.9989 13.5929 64.0628 17.7228 61.2926 20.3004C56.2271 25.0137 46.7098 23.0741 45.3982 15.7264C44.8933 12.8984 44.991 10.914 44.9923 8.18728L45.0009 0.438558Z" fill="#00214F"/>
<path d="M175.307 0.440313L187.056 0.433594L187.049 4.55373C184.883 4.46453 182.117 4.54933 179.926 4.56044L179.932 8.66172L188.19 8.64751L188.196 12.8067L179.926 12.8175L179.934 16.0946L179.93 18.3041L189 18.3017C188.921 19.5101 188.969 21.1965 188.99 22.4169L175.308 22.4339L175.307 0.440313Z" fill="#00214F"/>
<path d="M130.946 0.438538L146.785 0.431641L146.784 4.55767C145.149 4.46829 142.667 4.54944 140.975 4.56378L140.977 16.5873V22.4175L136.359 22.4299L136.347 4.54118C134.538 4.53697 132.731 4.54358 130.923 4.561L130.946 0.438538Z" fill="#00214F"/>
<path d="M151.326 0.438676L167.153 0.432617C167.136 1.79287 167.154 3.18447 167.157 4.5474C165.228 4.53857 163.299 4.54452 161.37 4.56526L161.372 16.7854L161.373 22.4226L156.75 22.4306L156.744 4.54049C154.936 4.52994 153.128 4.53827 151.32 4.56546L151.326 0.438676Z" fill="#00214F"/>
<path d="M24.218 0.43767L28.839 0.431641L28.8366 18.3038L37.7072 18.2996L37.7036 22.4231L24.2219 22.4372L24.218 0.43767Z" fill="#00214F"/>
</svg>
