<svg width="104" height="103" viewBox="0 0 104 103" fill="none" xmlns="http://www.w3.org/2000/svg">
<rect x="103.329" width="102.635" height="103.329" transform="rotate(90 103.329 0)" fill="#FF76BF"/>
<path d="M86.6449 46.6577C87.0419 46.6577 87.3727 46.7902 87.6374 47.055C87.9682 47.3198 88.1501 47.6674 88.1832 48.0977L89.126 84.2968C89.0929 84.992 88.9771 85.5713 88.7786 86.0347C88.6132 86.5313 88.3651 86.9451 88.0343 87.2761C87.7366 87.5741 87.3231 87.8223 86.7938 88.021C86.3307 88.2196 85.7683 88.3189 85.1067 88.3189L48.9328 87.3754C48.5358 87.3754 48.1885 87.2265 47.8908 86.9285C47.6261 86.5975 47.4938 86.2334 47.4938 85.8361L47.593 84.0485C47.6592 82.6581 48.1719 81.5492 49.1313 80.7216C50.0906 79.894 51.3808 79.5298 53.0017 79.6292L68.5828 80.0264C69.4098 80.0595 70.088 79.8112 70.6173 79.2816C71.1797 78.785 71.4608 78.1726 71.4608 77.4443C71.4608 76.716 71.1631 76.0539 70.5677 75.4581L15.0911 19.943C14.7603 19.6119 14.5784 19.2312 14.5453 18.8009C14.5453 18.3374 14.7107 17.9402 15.0415 17.6091L18.3661 14.2822C18.6969 13.9512 19.0939 13.7856 19.557 13.7856C20.0202 13.7856 20.4171 13.9512 20.7479 14.2822L76.3237 69.8966C76.8861 70.4594 77.5312 70.7408 78.2589 70.7408C78.9867 70.7408 79.5822 70.4759 80.0453 69.9463C80.5746 69.4166 80.8227 68.738 80.7896 67.9104L80.4423 52.1695C80.343 50.5474 80.7069 49.2564 81.534 48.2964C82.361 47.3364 83.4526 46.8398 84.809 46.8067L86.6449 46.6577Z" fill="#262626"/>
</svg>
