<svg width="97" height="97" viewBox="0 0 97 97" fill="none" xmlns="http://www.w3.org/2000/svg">
<path d="M46.6309 0H50.0155C50.3652 0.0705885 50.814 0.0671459 51.1774 0.0879794C51.781 0.122757 52.3836 0.166538 52.9857 0.219307C54.8866 0.40703 56.7747 0.704814 58.6407 1.11116C70.5187 3.70842 80.9824 10.6858 87.9459 20.6529C92.0411 26.5168 94.7839 33.2166 95.9755 40.269C96.1888 41.5169 96.3502 42.7731 96.4596 44.0343C96.4837 44.3257 96.6012 46.3852 96.6475 46.5478V50.0953C96.5795 50.4209 96.5833 50.8173 96.563 51.1557C96.5257 51.8107 96.4766 52.4648 96.4162 53.1179C96.2275 55.0187 95.925 56.9064 95.5106 58.7709C92.8816 70.6423 85.8747 81.0867 75.8867 88.0209C70.0331 92.0841 63.3536 94.8037 56.3269 95.9849C55.0697 96.1987 53.804 96.3587 52.5337 96.4644C52.2359 96.4889 50.2534 96.6036 50.0995 96.6475H46.5483C46.1913 96.5427 44.4912 96.4974 44.0143 96.4578C42.7681 96.3459 41.5266 96.185 40.2928 95.9764C33.22 94.7839 26.501 92.0322 20.623 87.9218C10.6887 80.9743 3.72929 70.546 1.12562 58.7063C0.715588 56.8493 0.41623 54.9692 0.229131 53.0768C0.170896 52.436 0.123088 51.7946 0.085727 51.1524C0.0656117 50.8046 0.0689184 50.3968 0 50.0623V46.5561C0.0592589 46.3001 0.142567 44.6231 0.170789 44.264C0.274536 42.9725 0.434385 41.6862 0.649883 40.4086C1.83257 33.2896 4.59388 26.5255 8.73131 20.6127C15.6918 10.6636 26.1441 3.70119 38.007 1.11182C39.871 0.704559 41.7576 0.407918 43.6567 0.223442C44.2685 0.168284 44.8812 0.122672 45.4945 0.0866241C45.8519 0.0658014 46.2864 0.0689194 46.6309 0Z" fill="#26645A"/>
<path d="M28.2891 26.502C28.472 26.5405 28.5052 26.5232 28.6929 26.5111C29.2842 27.0197 30.0387 27.8153 30.5974 28.377L33.8747 31.667L44.7343 42.5277C44.4866 42.7648 44.2271 43.0398 43.9853 43.2872L28.4803 27.8086C28.0171 28.3268 27.2837 29.017 26.7805 29.5201L23.5532 32.7465L13.3757 42.9332C13.3714 46.2667 13.4406 49.6866 13.4719 53.0257L13.6346 68.8077L15.7906 68.8182L35.3859 68.9191C38.6644 68.9145 41.9428 68.9302 45.2212 68.9643L45.2166 70.0409C37.803 70.0914 30.2217 69.9485 22.7887 69.9269L16.1301 69.9079C15.4792 69.9059 13.4003 69.9367 12.8838 69.8404C12.7805 69.712 12.5866 69.4748 12.5771 69.3149C12.5378 68.6504 12.5357 67.9178 12.5302 67.2559L12.4934 62.2672L12.3686 50.2696C12.3619 49.6134 12.2285 42.636 12.3774 42.4705C13.5282 41.1918 15.5708 39.2034 16.8711 37.9039L24.1473 30.6249C25.5009 29.2702 26.9076 27.8189 28.2891 26.502Z" fill="#F7F6F5"/>
<path d="M43.6484 55.4299C42.6687 54.2026 40.8555 53.9201 39.5574 53.2341C37.1594 51.9432 40.4695 49.3831 41.691 48.6629C42.4538 48.2129 45.5402 46.3852 45.8193 48.1903C45.8495 48.3833 45.8141 48.4151 45.6994 48.5432C45.3777 48.4503 45.5041 47.963 45.0906 47.6977C43.3921 47.6254 37.3838 51.1702 39.492 52.816C40.5449 53.6377 42.4787 53.6489 43.9229 55.255C44.9308 54.4889 45.9451 53.7596 46.8992 52.9234C47.2216 52.6404 47.5663 52.8933 47.7983 53.1259C47.8494 53.335 47.8579 53.2308 47.7354 53.4424C47.6292 53.6207 47.643 53.6875 47.6351 53.8933C47.6417 54.272 47.6712 55.3762 48.1856 55.3402C49.4103 54.5269 49.6089 52.8304 49.9339 51.5312C50.1213 50.7824 50.7196 47.6246 51.5721 47.5727C52.2425 48.2411 50.5309 50.5108 50.3382 51.2762C49.7281 53.7013 49.1161 56.1966 48.7852 58.6697C48.7531 58.9108 48.9713 59.0478 48.5892 59.304L48.4719 59.2398C48.2609 58.7267 48.9975 55.5924 49.1443 54.8598C47.9851 56.2261 47.5742 55.7091 47.2754 54.2111C47.0277 54.5525 46.493 55.3913 46.0231 55.1672C45.8239 54.8022 45.9458 54.4667 46.0244 54.0584L44.0553 55.5191C44.4413 57.8139 40.693 61.2607 39.462 60.19C39.0739 58.9895 42.6923 56.2215 43.6484 55.4299Z" fill="#F7F6F5"/>
<path d="M46.1963 55.0159C46.2934 54.3509 46.4114 53.3717 47.1505 53.1494C47.4168 53.1494 47.5099 53.2688 47.7362 53.4432C47.63 53.6216 47.6437 53.6885 47.6359 53.8944C47.5703 53.6636 47.6372 53.739 47.4837 53.6085C47.184 53.701 46.4855 54.6834 46.1963 55.0159Z" fill="#26645A"/>
<path d="M43.6764 55.8193L43.7655 55.9307C43.7779 57.7347 41.5689 59.854 39.8082 60.1239C39.7715 60.0545 39.7662 59.9975 39.7466 59.9188C40.0035 58.7203 42.643 56.6175 43.6764 55.8193Z" fill="#26645A"/>
<path d="M51.2912 48.1475C51.3614 48.5413 50.9768 49.2574 50.8022 49.6252C50.7825 49.2887 51.1474 48.4974 51.2912 48.1475Z" fill="#7B6E6A"/>
<path d="M73.3005 47.2542C75.0121 47.1483 74.2874 50.75 73.8444 51.1719L73.7448 51.1614C73.598 50.4427 74.5187 48.5054 73.733 47.6074C73.0325 47.3442 72.2403 48.4368 71.8936 48.9703C70.3255 51.383 68.8498 54.4962 69.2613 57.4431C69.2921 57.6665 69.4389 58.0564 69.6781 58.1606C71.3864 58.6691 73.2448 54.949 73.6937 54.0113C73.2153 54.0749 70.9389 54.3534 70.7043 54.2368L70.6781 54.1417C70.9729 53.9058 73.8588 53.6575 74.4453 53.5946L74.5541 53.5821C75.0561 53.5172 75.2959 53.3574 75.7985 53.4661L75.7802 53.5467C75.1294 53.8639 74.8817 53.858 74.1616 53.9465C73.8949 55.1758 73.6544 56.411 73.4394 57.6508C73.351 58.156 73.2566 58.6613 73.1832 59.1835C73.1341 59.5361 73.5436 60.1068 73.0817 60.4201C72.9814 60.4882 73.0063 60.4568 72.8811 60.426C72.6092 59.9679 73.4336 55.8527 73.583 55.0126C69.8583 61.3283 67.5379 58.2989 69.6289 52.6726C70.2266 51.0648 71.7318 47.9561 73.3005 47.2542Z" fill="#F7F6F5"/>
<path d="M64.4502 48.4512L64.6763 48.4934L64.7582 48.6223C64.8244 50.0868 63.3821 52.538 63.0662 53.9148C62.7707 55.2044 62.6187 56.6958 62.3736 58.0123C62.2858 58.4841 62.6475 58.7475 62.3297 59.2934L62.2314 59.3144C61.8028 58.9323 62.139 57.4665 62.2137 56.9291L62.6495 54.2647C62.3572 54.7287 61.8264 55.6945 61.2216 55.6395C60.5244 55.0058 61.2996 53.0295 62.2216 52.8827C62.4752 52.8421 62.582 52.9672 62.7733 53.0983L62.8493 53.1514C62.9588 52.9397 63.0793 52.3019 63.1442 52.0523C63.4397 50.9148 63.7589 49.3902 64.4502 48.4512Z" fill="#F7F6F5"/>
<path d="M62.1902 53.1836C63.1983 53.2754 61.8203 54.9071 61.5921 55.2049C61.5593 55.2272 61.4367 55.2856 61.3967 55.3059L61.2911 55.2469C61.1002 54.5241 61.6019 53.604 62.1902 53.1836Z" fill="#26645A"/>
<path d="M57.2474 52.1318C57.3522 52.1714 57.3863 52.2028 57.4813 52.2634C57.8168 53.1526 55.1406 54.5484 56.5908 55.6028C57.3975 55.6939 58.3463 53.9803 58.847 53.7037L58.9131 53.7621C58.7716 54.3361 57.6655 55.4953 57.1235 55.7764C56.3936 56.1558 56.0882 55.7083 55.889 55.0484L55.8608 54.9554C55.5744 54.9993 55.5266 55.1657 55.214 55.2404C54.5987 55.0563 54.6846 54.2391 54.3012 53.7889C53.6309 53.7916 53.4828 55.9062 52.7816 55.8852C52.8314 55.4599 52.9697 54.8498 53.0549 54.4154C52.5745 54.6657 52.3563 54.6225 51.9199 54.7987C51.4815 54.9757 51.2246 55.5399 50.6342 55.2535C50.0418 54.4724 50.6093 53.2621 51.5162 53.1192C52.1237 53.3722 51.6584 54.2804 52.2875 54.42C53.3327 54.1546 53.3524 53.1199 53.6767 52.8951C53.8412 53.2503 53.6269 53.6972 53.4972 54.0759C53.7626 53.768 53.9782 53.4207 54.4244 53.4875C55.0155 53.8256 54.775 54.6998 55.2927 54.8957C56.1721 54.5871 56.079 52.9233 57.2474 52.1318Z" fill="#F7F6F5"/>
<path d="M50.8803 53.8467C50.9696 53.9294 51.4083 54.5639 51.4563 54.7057C51.4812 54.7793 51.3525 54.9238 51.3026 54.9967L51.08 55.0328C50.5355 54.8161 50.6951 54.2729 50.8803 53.8467Z" fill="#26645A"/>
<path d="M51.4332 53.376C51.6674 53.6102 51.6516 54.0163 51.5683 54.3161C51.2961 53.952 51.2062 53.8011 51.4332 53.376Z" fill="#26645A"/>
<path d="M78.7181 52.7705C78.8537 52.8308 78.8066 52.8007 78.9094 52.9107C78.937 53.1748 78.7502 53.722 78.6689 54.0129C80.0719 52.5025 79.6899 54.4186 80.4133 54.8917C81.0529 54.7888 81.6623 52.6467 82.5325 53.2004C82.7645 53.6447 82.505 54.1859 82.9028 54.4382C83.543 54.4258 83.8595 53.642 84.313 53.7148C84.2638 53.9323 83.5463 54.6813 83.3346 54.6682C81.9428 54.5837 82.3969 56.1996 81.106 54.7954C80.7999 55.0214 80.8786 55.085 80.4297 55.2776C79.8124 55.0096 79.7751 54.3982 79.3871 53.7495C78.8459 54.1886 78.4632 55.6145 78.0248 55.8556C77.8662 55.5227 78.0831 54.8707 78.1768 54.509C77.7791 54.9382 77.1264 55.6308 76.5032 55.5712C75.9108 55.1839 76.2385 53.6335 76.5733 53.5084C76.7031 54.0136 76.3138 54.7914 76.6231 55.2233C77.4737 55.4054 78.4868 53.4422 78.7181 52.7705Z" fill="#F7F6F5"/>
<path d="M81.6705 53.8564C81.9785 54.4657 82.4545 54.4671 82.0389 55.014C81.8577 55.0468 81.8662 55.037 81.6889 54.9785C81.3271 54.6063 81.4578 54.2813 81.6705 53.8564Z" fill="#26645A"/>
<path d="M34.1888 47.1006C34.5334 47.2258 34.7608 47.4534 34.7133 47.8476C34.5646 49.0827 34.221 50.3242 33.9373 51.5389C33.453 53.5784 32.9968 55.6242 32.5687 57.6759C32.4199 58.3823 32.17 59.168 32.1652 59.8797C32.1632 60.1791 32.2332 60.5002 31.9146 60.6097L31.8179 60.5251C31.6704 59.7355 33.4077 52.4447 33.7044 51.0986C33.8664 50.4287 34.465 48.2479 34.3544 47.6991C34.2104 47.5133 34.3024 47.566 34.0696 47.5354C32.7584 47.9845 30.89 51.3235 30.8979 52.7868C30.906 54.271 32.0257 53.8189 32.4104 54.2186L32.3476 54.3379C32.1154 54.4309 31.8468 54.3569 31.6162 54.2881C30.2932 53.8896 30.4694 52.4002 30.8746 51.3804C31.4779 49.8626 32.6573 47.8199 34.1888 47.1006Z" fill="#F7F6F5"/>
<path d="M36.6282 47.5342C36.8518 47.5981 36.7553 47.5409 36.9165 47.7294C37.1323 48.802 35.7726 50.4652 35.5381 51.3193C34.9349 53.5157 34.4965 55.8433 34.0339 58.0772C33.9008 58.72 34.1464 58.7102 33.9974 59.2207C33.8278 59.3334 33.9184 59.3033 33.7157 59.3137C33.3077 58.8065 35.1471 51.7122 35.3703 50.6111C35.5469 49.7399 36.0067 48.1987 36.6282 47.5342Z" fill="#F7F6F5"/>
<path d="M48.065 67.5342C48.2826 67.7184 48.6654 68.5829 48.8037 68.8707C49.0685 68.5751 49.9403 67.4208 50.2818 67.6043C50.5348 68.0848 50.1671 69.7058 49.7987 70.0912C49.5778 70.1449 49.6814 70.1567 49.4782 70.0564C49.395 69.8015 49.4756 69.6369 49.5313 69.3439C49.5798 69.1152 49.5864 69.1126 49.5713 68.8668C49.2711 68.9041 49.256 69.4488 48.6523 69.4986C48.4367 69.4023 48.2459 68.9369 48.1037 68.6865C48.0322 69.0392 47.9247 69.8762 47.7248 70.0827C47.4371 70.1371 47.5682 70.1521 47.3125 70.0689C47.1782 69.6769 47.5813 68.1818 47.7301 67.742C47.7805 67.5919 47.9077 67.5879 48.065 67.5342Z" fill="#F7F6F5"/>
<path d="M56.4034 67.5615C56.4984 67.6199 56.4519 67.5799 56.5306 67.694C56.4388 68.2342 56.286 69.9402 55.7628 70.1363C55.4592 70.0386 55.0081 69.0243 54.7773 68.646C54.6639 69.2007 54.6337 69.9324 54.2358 70.2143C54.1387 70.1625 53.9512 70.0937 53.9551 70.0183C53.9919 69.3947 54.1702 68.1529 54.5302 67.6723C54.7308 67.5674 54.6337 67.572 54.8285 67.6304C55.0527 67.8612 55.4795 68.7352 55.652 69.0577C55.7831 68.6053 55.7825 68.0336 56.0408 67.6664C56.0998 67.5818 56.2749 67.5832 56.4034 67.5615Z" fill="#F7F6F5"/>
<path d="M65.1764 67.6178C65.4033 67.5955 65.4741 67.5751 65.6983 67.6361C65.8294 67.8571 66.2019 69.7827 66.173 70.0614C65.7219 70.2161 65.7114 69.8221 65.2807 69.6693C65.2807 69.6693 64.7686 69.67 64.7306 69.67L64.5804 69.7132C64.4617 69.8975 64.4447 69.9427 64.2821 70.0942C64.0369 70.1217 64.0316 70.1106 63.7995 70.0627L63.7805 69.9742C64.0329 69.4038 64.8165 68.1652 65.1764 67.6178Z" fill="#F7F6F5"/>
<path d="M65.2994 68.3955C65.3827 68.631 65.4758 68.8259 65.4588 69.0732C65.3269 69.2864 65.3597 69.2188 65.0284 69.3041L64.9077 69.1821C64.9523 68.919 65.1563 68.633 65.2994 68.3955Z" fill="#367D73"/>
<path d="M72.2187 67.6102C72.4633 67.5997 72.6141 67.5728 72.7839 67.7039C72.8908 68.0383 73.2403 69.7548 73.2226 70.063C72.641 70.297 72.9537 69.6263 71.8588 69.663L71.7486 69.6676L71.6123 69.7155C71.3369 70.1928 71.3926 70.103 70.8458 70.0761L70.8143 70.0079C71.0458 69.4486 71.8706 68.157 72.2187 67.6102Z" fill="#F7F6F5"/>
<path d="M72.32 68.458C72.4572 68.5926 72.5333 68.9188 72.4933 69.1046C72.4578 69.2687 72.408 69.2385 72.2524 69.3363C72.0712 69.2549 72.1231 69.3008 71.9938 69.1656C71.982 68.9267 72.1848 68.6753 72.32 68.458Z" fill="#367D73"/>
<path d="M61.206 67.5727C61.783 67.5425 62.4938 67.555 62.6832 68.3411C62.7095 68.4493 62.6721 68.4513 62.6046 68.5417C61.9778 68.6611 61.9686 68.1411 61.6198 68.069C61.0979 67.9608 60.3347 68.8538 60.8061 69.3902C60.9215 69.5193 61.0841 69.5954 61.2572 69.6013C61.5765 69.6137 61.7653 69.4452 61.9961 69.2551C62.0571 69.1561 62.0905 69.1607 62.2066 69.0886C62.4039 69.105 62.3154 69.0735 62.48 69.1948C62.4583 70.6117 59.4213 70.51 60.1636 68.627C60.4088 68.0067 60.6114 67.8605 61.206 67.5727Z" fill="#F7F6F5"/>
<path d="M68.5393 67.5746C68.9884 67.5451 70.1863 67.7038 69.7057 68.3929C69.0429 68.4748 69.1307 67.6389 68.477 68.2008C68.4088 68.6689 70.9456 69.2636 68.9563 70.1297C68.4364 70.2143 67.826 70.1887 67.6293 69.6209C67.6798 69.3442 67.6116 69.436 67.7722 69.2832C68.1984 69.2859 68.3957 69.8766 68.9603 69.5462C69.037 69.1364 68.2161 69.1193 67.8653 68.4342C67.8214 67.9451 68.1486 67.768 68.5393 67.5746Z" fill="#F7F6F5"/>
<path d="M58.2481 67.6114C58.4526 67.6035 58.5149 67.6114 58.7129 67.6324L58.7811 67.7274C58.728 68.3346 58.4572 69.478 58.3215 70.1193C58.0547 70.1068 57.9668 70.1488 57.776 70.0262C57.8055 69.4669 58.1123 68.1982 58.2481 67.6114Z" fill="#F7F6F5"/>
<path d="M52.1482 67.5951C52.3888 67.5886 52.4078 67.5827 52.6537 67.6319C52.7494 67.8633 52.3134 69.73 52.2321 70.1175C52.0006 70.1201 51.9574 70.1129 51.7377 70.0788C51.6335 69.8303 52.0721 67.9584 52.1482 67.5951Z" fill="#F7F6F5"/>
<path d="M64.0386 53.4336L64.1691 53.5129C64.3553 53.8768 63.8458 54.8964 64.2255 55.2655C64.9191 55.2786 65.86 53.7037 66.0987 53.5641L66.2115 53.6139L66.2534 53.7699C65.9885 54.1738 64.3763 56.407 63.7285 55.1875C63.5816 54.9128 63.8799 53.7575 64.0386 53.4336Z" fill="#F7F6F5"/>
</svg>
