<svg width="151" height="81" viewBox="0 0 151 81" fill="none" xmlns="http://www.w3.org/2000/svg">
<path d="M100.949 0.139525C102.346 -0.0739021 103.766 0.00223059 105.167 0.0758948C106.114 0.173291 107.755 0.123995 108.77 0.114837C109.342 0.0649844 110.992 -0.045711 111.518 0.114758L127.11 0.109263C127.468 0.0493756 127.91 0.0711169 128.281 0.076373C129.798 0.175043 131.374 0.101618 132.897 0.119457C137.426 0.172256 142.015 0.034006 146.538 0.13411C146.488 5.40186 146.478 10.6698 146.51 15.9377C146.509 18.0305 146.672 20.7788 146.339 22.7783L146.489 23.1936C146.577 24.0349 146.523 25.0365 146.524 25.8905C146.527 29.3646 146.443 32.8599 146.524 36.3321L146.53 37.0703C146.524 38.7713 146.585 40.8116 146.525 42.4776C144.275 42.3791 141.96 42.4358 139.704 42.4718C139.662 42.1112 139.719 41.9554 139.502 41.7806C139.208 41.7521 139.173 41.7692 138.909 41.9041C138.596 42.338 138.903 42.0751 138.736 42.4518C138.219 42.5043 137.853 42.448 137.387 42.4781C137.34 42.0635 137.278 41.2907 137.151 40.9235C136.941 40.8943 136.886 41.2015 136.577 40.8178C136.748 40.8083 136.76 40.8002 136.917 40.7537C137.337 39.9614 136.944 38.3722 136.786 37.4487C136.569 38.0299 136.894 38.6522 136.593 39.0353C136.382 39.1222 136.354 39.1226 136.127 39.0944C136.228 40.2116 136.513 40.2109 136.577 40.8178C136.119 41.3341 136.817 42.1699 136.158 42.4741C135.804 42.3593 135.673 41.7689 135.556 41.4236L135.457 41.4167C135.28 41.6055 135.283 41.6687 135.065 41.7073C134.889 41.5762 134.85 41.5419 134.709 41.3744C134.78 41.751 134.828 41.9946 134.757 42.3707C134.625 42.5136 134.614 42.5365 134.398 42.5347C131.654 42.512 128.736 42.3163 126.001 42.5086L125.013 42.4984L124.439 42.5001L123.586 42.5056C122.687 42.3967 120.952 42.4156 120.017 42.4233L114.858 42.4812L114.454 42.4117C114.028 42.4409 113.499 42.3952 113.064 42.3699L112.748 42.4009C112.192 42.3857 112.009 42.4309 111.461 42.2921L111.191 42.3067C111.059 42.2337 110.99 42.2144 110.892 42.1049L110.763 42.0749C110.649 42.2117 110.554 42.3925 110.356 42.3935C108.333 42.4035 106.261 42.4984 104.241 42.4037L104.126 42.4123C103.684 42.4491 103.386 42.4421 102.94 42.428C102.448 42.4638 102.278 42.4713 101.792 42.4143L101.689 42.4681C99.8828 42.5325 98.2738 42.4473 96.4752 42.4339L88.1387 42.4411C88.0073 41.269 88.0965 40.0449 88.0622 38.8788C87.9802 36.0697 88.1992 32.8126 88.036 30.049C88.0423 29.7428 88.0304 29.297 88.1722 29.0335C88.7218 28.0097 89.4689 27.0705 90.1101 26.0694C89.7835 26.0688 89.5836 25.8371 89.3096 25.6144C88.7154 26.3669 88.5234 26.7562 87.7803 27.4816C88.1045 26.4986 88.4852 25.8779 89.0826 25.0392L88.5585 24.2223L87.9372 24.8318C87.9635 24.3437 88.1865 24.0223 88.1491 23.6227C88.0981 23.4083 88.0949 23.2522 88.0814 23.0345L88.071 0.11866L100.949 0.139525ZM139.597 40.0572L138.774 40.1551L138.64 40.028C138.642 40.5521 138.532 41.208 139.163 41.3334C139.662 41.1025 139.62 40.5175 139.597 40.0572ZM133.619 39.2429C133.827 39.777 134.352 41.0712 134.974 41.1734C135.594 40.7998 134.694 39.3591 134.462 38.9178C134.241 38.9952 133.801 39.1354 133.619 39.2429Z" fill="#C0A282"/>
<path d="M138.64 40.0293L138.774 40.1564L139.597 40.0584C139.62 40.5188 139.662 41.1038 139.163 41.3347C138.532 41.2093 138.642 40.5534 138.64 40.0293Z" fill="#EDEAE6" fill-opacity="0.878431"/>
<path d="M100.949 0.139525C102.346 -0.0739021 103.766 0.00223059 105.167 0.0758948C106.114 0.173291 107.755 0.123995 108.77 0.114837C109.342 0.0649844 110.992 -0.045711 111.518 0.114758L127.11 0.109263C127.468 0.0493756 127.91 0.0711169 128.281 0.076373C128.18 0.442225 127.508 1.17297 127.234 1.51366C123.936 5.61321 116.275 12.3476 112.23 5.21017C111.222 3.43283 111.036 2.01211 110.647 0.101698C110.307 0.123438 109.916 0.138012 109.585 0.197739C109.468 4.62468 109.597 8.74199 110.201 13.1495C110.747 17.1384 112.403 20.8455 113.198 24.6478C114.07 28.8202 114.832 35.1732 114.237 39.336C114.122 39.8398 113.777 41.6586 113.46 41.9554L113.197 41.9969C113.164 42.2551 113.208 42.1867 113.064 42.3699L112.748 42.4009C112.192 42.3857 112.009 42.4309 111.461 42.2921L111.191 42.3067C111.059 42.2337 110.99 42.2144 110.892 42.1049L110.763 42.0749C110.649 42.2117 110.554 42.3925 110.356 42.3935C108.333 42.4035 106.261 42.4984 104.241 42.4037L104.126 42.4123C103.684 42.4491 103.386 42.4421 102.94 42.428C102.448 42.4638 102.278 42.4713 101.792 42.4143L101.689 42.4681C99.8828 42.5325 98.2738 42.4473 96.4752 42.4339L88.1387 42.4411C88.0073 41.269 88.0965 40.0449 88.0622 38.8788C87.9802 36.0697 88.1992 32.8126 88.036 30.049C88.0423 29.7428 88.0304 29.297 88.1722 29.0335C88.7218 28.0097 89.4689 27.0705 90.1101 26.0694C89.7835 26.0688 89.5836 25.8371 89.3096 25.6144C88.7154 26.3669 88.5234 26.7562 87.7803 27.4816C88.1045 26.4986 88.4852 25.8779 89.0826 25.0392L88.5585 24.2223L87.9372 24.8318C87.9635 24.3437 88.1865 24.0223 88.1491 23.6227C88.0981 23.4083 88.0949 23.2522 88.0814 23.0345L88.071 0.11866L100.949 0.139525Z" fill="#C0A282"/>
<path d="M108.77 0.114065C109.342 0.0642122 110.992 -0.0464831 111.518 0.113985L127.11 0.10849C127.468 0.0486034 127.91 0.0703447 128.281 0.0756008C128.179 0.441453 127.508 1.1722 127.234 1.51289C123.936 5.61244 116.275 12.3469 112.23 5.2094C111.222 3.43206 111.036 2.01134 110.647 0.100925C110.307 0.122666 109.916 0.137239 109.585 0.196967C109.468 4.62391 109.597 8.74122 110.201 13.1487C110.747 17.1376 112.403 20.8448 113.198 24.647C114.07 28.8194 114.832 35.1724 114.237 39.3352C114.122 39.8391 113.777 41.6578 113.46 41.9546L113.197 41.9961C113.164 42.2543 113.208 42.1859 113.064 42.3691L112.747 42.4001C112.192 42.385 112.009 42.4301 111.461 42.2913L111.191 42.306C111.059 42.2329 110.99 42.2136 110.892 42.1042L110.763 42.0741C110.649 42.2109 110.554 42.3917 110.356 42.3927C108.333 42.4027 106.261 42.4976 104.241 42.4029L104.126 42.4116C103.684 42.4484 103.386 42.4413 102.94 42.4272C102.448 42.463 102.278 42.4705 101.792 42.4135C103.166 40.2812 103.998 39.1568 105.23 36.8657C103.711 36.7274 101.75 36.771 100.19 36.768L92.3523 36.7736C91.4474 36.778 90.545 36.7814 89.6409 36.809C89.2817 36.82 88.0909 36.9086 88.0646 36.4178C88.4381 35.8655 90.5163 36.0639 91.2101 36.0802C91.1798 33.9894 90.7951 30.4989 89.6561 28.7185C90.0591 28.359 91.4634 27.3801 91.9692 27.6493C92.1882 28.0427 92.3866 28.9106 92.5275 29.3827C93.2333 31.744 93.857 33.5857 94.1302 36.0527L95.6874 36.0516C95.2397 33.0402 94.718 29.8264 93.4364 27.0101C93.1536 26.3881 92.3252 25.3177 91.9023 24.6869C91.954 24.2063 92.8581 24.3397 93.2333 24.3522C94.2138 25.0404 95.0685 26.8567 96.425 26.934C97.5919 26.4221 95.4006 22.1608 95.1856 21.1359C95.2469 20.8084 95.9765 20.0159 96.3007 19.9793C96.4751 20.0997 96.7133 20.6489 96.7348 20.8639C96.8511 22.0457 99.9488 25.2195 101.238 24.6965C101.337 24.2984 100.545 21.9138 100.408 21.3247C99.7393 18.4158 99.1459 16.3111 99.2335 13.2808C99.5737 12.9805 101.97 10.982 102.221 11.9117C103.192 15.5309 103.199 19.6555 104.888 23.066C105.09 23.4728 105.521 23.7736 105.883 24.0487C106.265 24.0856 106.667 24.1293 107.041 24.0384C108.542 23.6741 110.268 21.8407 111.053 20.5699C110.524 18.2905 109.691 15.8045 109.306 13.4918C108.56 9.01142 108.604 4.61491 108.77 0.114065Z" fill="#F9F9F8"/>
<path d="M100.15 13.7584C100.599 13.2963 100.989 13.0521 101.521 12.7129C102.192 16.0423 102.469 19.774 103.749 22.9264C105.375 26.9326 109.172 26.0513 112.271 24.7259C113.208 28.8529 113.599 33.4024 113.486 37.6412C113.458 38.6951 112.682 41.2475 112.732 41.8835L113.197 41.998C113.164 42.2561 113.208 42.1877 113.064 42.371L112.747 42.4019C112.191 42.3868 112.009 42.432 111.461 42.2932L111.191 42.3078C111.059 42.2348 110.989 42.2154 110.892 42.106L110.762 42.076C110.648 42.2127 110.554 42.3936 110.356 42.3945C108.333 42.4046 106.26 42.4994 104.241 42.4047L104.126 42.4134C103.684 42.4502 103.386 42.4432 102.94 42.4291C102.99 42.3151 103.423 41.6782 103.532 41.4928C104.446 39.9467 105.897 38.2987 106.209 36.4781C106.517 34.6837 104.968 32.2976 104.333 30.6501C103.415 28.2161 102.61 25.7414 101.918 23.2339C100.923 19.7194 100.219 17.5225 100.15 13.7584Z" fill="#C0A282"/>
<path d="M105.298 42.35C106.096 40.4297 108.297 37.0593 109.681 35.4968C110.027 35.1223 110.573 34.6921 111.113 34.7158C111.957 34.7527 111.859 35.6729 111.902 36.2494C112.045 38.186 111.114 39.9114 110.801 41.7089C111.028 41.9588 111.054 41.9972 111.191 42.3058C111.059 42.2328 110.989 42.2134 110.892 42.104L110.762 42.074C110.648 42.2107 110.554 42.3916 110.356 42.3925C108.333 42.4026 106.26 42.4974 104.241 42.4027C104.56 42.3117 104.96 42.3425 105.298 42.35Z" fill="#C0A282"/>
<path d="M104.126 42.4114L104.116 42.348C105.005 41.1133 105.645 39.5314 106.521 38.2918C107.78 36.5107 109.614 32.4985 112.317 34.2437C112.411 34.438 112.548 34.7751 112.615 34.9667C113.192 36.5928 112.207 40.8773 111.461 42.2911L111.191 42.3058C111.054 41.9972 111.029 41.9588 110.802 41.7089C111.115 39.9113 112.046 38.186 111.902 36.2494C111.859 35.6728 111.957 34.7527 111.113 34.7157C110.573 34.6921 110.027 35.1223 109.681 35.4967C108.297 37.0593 106.097 40.4296 105.298 42.35C104.96 42.3425 104.56 42.3117 104.241 42.4027L104.126 42.4114Z" fill="#F9F9F8"/>
<path d="M111.518 0.11487L127.11 0.109375C125.228 2.80795 121.412 6.46807 118.106 7.20662C113.642 8.20352 112.211 3.5129 111.518 0.11487Z" fill="#C0A282"/>
<path d="M97.0748 23.4932C97.3376 23.5875 97.5121 23.7683 97.7192 23.9528C98.9498 25.0497 99.9726 25.7724 101.702 25.7858C102.064 26.9111 103.034 29.5847 103.202 30.5848C101.725 31.6877 101.827 34.2233 101.758 35.9051L99.3537 35.9161L96.5961 35.9139C96.4399 33.2747 95.3383 29.6552 94.588 27.1276C95.3105 27.7226 96.8868 28.5723 97.4635 27.2807C97.8952 26.3134 97.4372 24.4721 97.0748 23.4932Z" fill="#C0A282"/>
<path d="M103.549 31.4053C104.005 31.9355 105.511 35.3462 105.334 35.9835C105.154 36.0796 104.773 36.058 104.55 36.0621L102.669 36.064C102.712 34.4218 102.585 32.7786 103.549 31.4053Z" fill="#C0A282"/>
<path d="M111.363 21.6875C111.616 21.8849 111.879 23.4202 111.915 23.7757C111.488 24.2766 109.439 24.757 108.73 24.8301C108.512 24.8404 108.315 24.8281 108.098 24.8186L108.052 24.7526C108.401 24.4556 108.814 24.2872 109.193 24.0264C110.176 23.3518 110.717 22.6556 111.363 21.6875Z" fill="#C0A282"/>
<path d="M92.1378 31.3242C92.5639 32.8573 93.0235 34.3576 93.1725 35.9485L92.1951 35.9194C92.0868 34.484 91.9554 33.3313 91.7076 31.894C91.8749 31.7421 92.0095 31.5157 92.1378 31.3242Z" fill="#C0A282"/>
<path d="M91.7077 31.8961C91.6488 31.4997 91.1207 29.115 91.1565 28.9696L91.3326 28.877L91.4393 28.9295C91.5827 29.6677 91.9021 30.6126 92.1379 31.3263C92.0096 31.5177 91.875 31.7441 91.7077 31.8961Z" fill="#B98D52"/>
<path d="M88.0707 0.118164L100.949 0.139029C100.578 0.707637 100.318 1.78202 99.9764 2.44818C98.9481 4.45034 97.9301 6.46443 96.8421 8.43417C95.1606 11.4358 93.3955 14.39 91.5499 17.2935L89.2846 20.7621C88.8162 21.4768 88.1679 22.1967 88.081 23.034L88.0707 0.118164Z" fill="#C0A282"/>
<path d="M100.949 0.139525C102.346 -0.0739021 103.766 0.00223059 105.167 0.0758948C104.858 0.977465 104.106 2.41284 103.673 3.3129C100.416 10.0938 96.4075 16.5299 92.3404 22.8502C91.8832 23.561 91.3623 24.4614 90.8493 25.1075C90.557 24.6943 90.5052 24.6676 90.0289 24.4342C89.7445 24.7682 89.6529 24.9374 89.4363 25.3239C89.625 25.5071 89.9644 25.8645 90.2049 25.9468L90.1101 26.0694C89.7835 26.0688 89.5836 25.8371 89.3096 25.6144C88.7154 26.3669 88.5234 26.7562 87.7803 27.4816C88.1045 26.4986 88.4852 25.8779 89.0826 25.0392L88.5585 24.2223L87.9372 24.8318C87.9635 24.3437 88.1865 24.0223 88.1491 23.6227C88.0981 23.4083 88.0949 23.2522 88.0814 23.0345C88.1682 22.1972 88.8166 21.4773 89.2849 20.7626L91.5503 17.294C93.3958 14.3905 95.1609 11.4363 96.8424 8.43467C97.9305 6.46493 98.9484 4.45083 99.9768 2.44868C100.318 1.78251 100.578 0.708133 100.949 0.139525Z" fill="#F9F9F8"/>
<path d="M88.1491 23.6218L88.353 23.6876C89.3455 22.6233 91.3089 19.4693 92.1484 18.1726C94.8009 14.0787 97.2295 9.88275 99.5012 5.56436C100.015 4.60815 100.501 3.63754 100.96 2.6537C101.208 2.10596 101.795 0.441229 102.25 0.154297L102.397 0.161942L102.445 0.270169C102.077 0.789402 101.871 1.58474 101.573 2.16784C100.977 3.33325 100.436 4.5415 99.8238 5.69671C97.6644 9.7226 95.3537 13.6657 92.8972 17.5179C91.833 19.2086 90.2726 21.5423 89.1503 23.2845C89.1607 23.3607 89.1686 23.4255 89.1758 23.4789C89.3877 23.7447 89.5183 23.8025 89.8082 23.9773C90.7784 23.1157 91.7836 21.2296 92.5085 20.1026C95.5727 15.3396 98.5215 10.5212 101.125 5.4852C101.561 4.6408 103.39 0.534882 103.767 0.194753C103.82 0.147847 103.879 0.161146 103.947 0.156049C104.014 0.449432 103.164 2.08685 102.984 2.45254C100.479 7.57041 97.7043 12.5518 94.6719 17.3759C93.1855 19.7585 91.5518 22.0932 90.0289 24.4333C89.7445 24.7673 89.6529 24.9365 89.4363 25.323C89.625 25.5062 89.9644 25.8636 90.2049 25.9459L90.1101 26.0685C89.7835 26.0679 89.5836 25.8362 89.3096 25.6135C88.7154 26.366 88.5234 26.7553 87.7803 27.4807C88.1045 26.4977 88.4852 25.877 89.0826 25.0383L88.5585 24.2214L87.9372 24.8308C87.9635 24.3428 88.1865 24.0214 88.1491 23.6218Z" fill="#B98D52"/>
<path d="M114.529 39.3177C114.983 36.2802 117.388 30.5347 119.395 28.1278C121.201 25.9138 123.223 24.6726 126.086 24.3924C134.506 23.5685 136.205 30.5771 136.786 37.4493C136.569 38.0304 136.894 38.6527 136.593 39.0359C136.382 39.1227 136.354 39.1231 136.127 39.0949C136.228 40.2121 136.513 40.2114 136.577 40.8183C136.119 41.3346 136.817 42.1705 136.158 42.4747C135.804 42.3598 135.673 41.7694 135.556 41.4242L135.458 41.4172C135.28 41.606 135.283 41.6692 135.065 41.7078C134.889 41.5767 134.85 41.5424 134.709 41.3749C134.78 41.7515 134.828 41.9952 134.757 42.3712C134.625 42.5142 134.614 42.537 134.398 42.5353C131.654 42.5125 128.736 42.3168 126.001 42.5091L125.013 42.4989L124.439 42.5006L123.586 42.5061C122.688 42.3973 120.952 42.4161 120.017 42.4238L114.858 42.4817L114.454 42.4122C114.028 42.4415 113.499 42.3957 113.064 42.3704C113.208 42.1872 113.164 42.2556 113.197 41.9974L113.461 41.9559C113.777 41.6591 114.122 39.8404 114.237 39.3365L114.529 39.3177ZM133.619 39.2434C133.827 39.7775 134.352 41.0717 134.974 41.1739C135.595 40.8003 134.694 39.3597 134.462 38.9183C134.241 38.9957 133.801 39.136 133.619 39.2434Z" fill="#C0A282"/>
<path d="M134.462 38.916C134.693 39.3574 135.594 40.798 134.974 41.1716C134.352 41.0694 133.827 39.7752 133.619 39.2411C133.801 39.1337 134.241 38.9934 134.462 38.916Z" fill="#EDEAE6" fill-opacity="0.827451"/>
<path d="M118.263 31.5898C121.79 33.957 123.629 38.323 123.586 42.5053C122.687 42.3964 120.952 42.4153 120.017 42.4229L114.858 42.4808C115.625 37.8867 116.22 35.8347 118.263 31.5898Z" fill="#C0A282"/>
<path d="M114.529 39.3177C114.983 36.2802 117.388 30.5347 119.395 28.1278C121.201 25.9138 123.223 24.6726 126.086 24.3924C134.506 23.5685 136.205 30.5771 136.786 37.4493C136.569 38.0304 136.894 38.6527 136.593 39.0359C136.382 39.1227 136.354 39.1231 136.127 39.0949C135.419 35.0563 135.455 29.3053 131.809 26.5786C130.145 25.3339 127.411 25.0518 125.406 25.4073C122.378 25.9443 120.226 28.2333 118.746 30.8048C121.624 32.4333 123.052 35.294 123.887 38.3767C124.257 39.7448 124.367 40.9834 124.575 42.3757L124.439 42.5006L123.586 42.5061C123.629 38.3238 121.791 33.9578 118.264 31.5907C116.22 35.8356 115.625 37.8875 114.858 42.4817L114.454 42.4122C114.028 42.4415 113.499 42.3957 113.064 42.3704C113.208 42.1872 113.164 42.2556 113.197 41.9974L113.461 41.9559C113.777 41.6591 114.122 39.8404 114.237 39.3365L114.529 39.3177Z" fill="#F9F9F8"/>
<path d="M114.237 39.3362L114.529 39.3174C114.405 39.9365 114.095 41.7925 113.816 42.2135L113.877 42.3308L114.454 42.4119C114.028 42.4411 113.499 42.3954 113.064 42.3701C113.208 42.1869 113.164 42.2553 113.197 41.9971L113.461 41.9556C113.777 41.6588 114.122 39.84 114.237 39.3362Z" fill="#C8B193"/>
<path d="M125.013 42.4994C125.207 40.8781 124.793 39.1661 125.312 37.4319C125.965 35.2486 127.18 33.4838 129.764 34.2775C132.041 34.9771 133.385 36.906 134.462 38.9188C134.241 38.9962 133.8 39.1364 133.619 39.2439C132.692 37.6946 131.081 35.48 129.272 35.1091C125.639 34.3642 125.912 40.5319 126.001 42.5096L125.013 42.4994Z" fill="#F9F9F8"/>
<path d="M146.488 23.1924C146.577 24.0337 146.523 25.0353 146.523 25.8893C146.527 29.3634 146.443 32.8586 146.524 36.3308C144.431 36.2434 141.836 36.3274 139.65 36.29C139.938 31.3734 142.014 25.742 146.488 23.1924Z" fill="#C0A282"/>
<path d="M138.64 40.0268C138.582 34.928 139.281 29.4171 142.594 25.2754C143.271 24.4292 145.15 22.5226 146.253 22.4189L146.339 22.7772L146.489 23.1925C142.014 25.7421 139.939 31.3735 139.65 36.2901C141.836 36.3275 144.431 36.2435 146.524 36.3309L146.53 37.0691C144.23 36.9945 141.928 37.0012 139.629 37.0892C139.577 38.0904 139.59 39.055 139.597 40.056L138.774 40.1539L138.64 40.0268Z" fill="#F9F9F8"/>
<path d="M77.2522 11.6378C90.4236 11.156 84.9809 22.6191 80.04 28.7302C72.4515 38.1164 61.4492 46.0303 49.3545 48.0373C45.8428 48.62 41.1416 48.4861 38.2175 46.248C34.8812 50.2497 31.7428 54.492 28.4999 58.5731C27.4834 59.851 26.4603 61.1236 25.4304 62.3908C24.7419 63.2314 23.7517 64.332 23.2221 65.2258C26.061 64.5675 28.9371 63.9041 31.8278 63.5094C34.5495 63.1548 37.2945 63.001 40.0248 62.7607C46.0639 62.2293 52.0741 62.6646 58.1083 62.93L67.8537 63.3118C69.1563 63.3689 74.66 63.33 75.401 63.7786C75.593 63.8949 75.6575 64.0246 75.7093 64.2369C75.5866 65.6977 72.5338 66.3183 71.3303 66.3674C69.5823 66.4388 67.7578 66.3151 66.0028 66.2411C63.5628 66.1451 61.1219 66.0696 58.6805 66.0148C47.9082 65.7438 36.0004 65.5068 25.3713 67.0498C24.6572 67.1799 21.2791 67.6801 21.1106 67.8543C16.5805 72.537 12.0113 78.8252 5.50137 80.8328C4.1319 81.2557 0.348136 80.9443 0.0375848 79.1477C0.00183646 78.9319 -0.0084628 78.7121 0.00691025 78.4931C0.300137 73.8439 12.833 68.3774 16.6544 67.148C17.3703 66.9177 20.8719 65.8926 21.0889 65.6535C24.257 62.1616 27.093 58.268 29.9397 54.5102L34.0518 49.1C35.045 47.8173 36.0786 46.5598 37.0269 45.2458C36.8441 44.9253 36.6656 44.6024 36.4915 44.2771C35.2282 41.8879 35.3288 39.8325 36.0718 37.2781C37.2599 33.2934 39.7797 29.1591 43.4848 27.0859C44.0852 26.75 46.1398 25.9485 46.4715 26.8632C46.2754 27.7501 45.153 27.6325 44.4289 27.9895C40.1046 30.1218 37.2411 35.6747 37.9137 40.4319C37.9985 41.0314 38.3803 42.5267 38.8473 42.855C39.0688 42.7821 41.2973 39.8273 41.5925 39.4659C49.5543 29.7197 63.8348 12.314 77.2522 11.6378ZM39.7545 44.2089C41.9054 46.1066 44.4006 46.4744 47.176 46.4074C57.0716 46.1185 67.854 38.9202 74.5235 31.9447C77.3135 29.0267 82.197 22.8753 82.0696 18.6099C82.0298 17.345 81.4921 16.1471 80.5737 15.2761C79.4171 14.1914 76.3417 13.4754 74.7664 13.6286C71.0255 13.8705 68.563 15.064 65.5271 17.104C59.4833 21.1651 54.5136 26.5894 49.7364 32.0278C47.4083 34.7207 45.134 37.4597 42.915 40.2432C41.9428 41.4555 40.6508 42.9524 39.7545 44.2089ZM3.62865 78.1188C8.81877 80.4752 15.2903 72.3141 18.3062 69.0884C18.5066 68.8741 18.755 68.6124 18.8563 68.3394L18.7825 68.2414L18.7242 68.2336C13.8549 69.4702 6.48127 71.3895 3.31499 75.6707C2.68862 76.5181 2.69985 77.4761 3.62865 78.1188Z" fill="#030303"/>
<path d="M74.7078 44.7517C74.9997 44.7283 75.4585 44.7673 75.7237 44.8669C78.6773 45.9772 74.2148 49.2362 72.8119 47.8429C72.5594 47.1697 73.1277 46.9413 73.1391 46.3621C72.242 45.8947 65.6541 48.7037 65.2415 49.5841C65.6177 50.5768 68.9913 49.7536 69.4122 50.5111C70.3876 52.3815 67.4555 52.4029 66.2705 53.113C63.6129 54.6809 64.2338 57.1967 67.4393 57.2378C70.066 57.4443 72.4963 56.378 74.8557 55.7461C78.1762 54.8564 78.4725 54.0461 80.5754 51.565C81.0055 51.0564 82.7873 49.0266 83.4636 49.9937C83.4198 51.004 78.4909 54.6338 81.4818 56.3958C81.7184 56.535 82.3978 56.4912 82.6615 56.4162C85.3466 55.6512 87.6008 53.726 89.7562 52.0269C90.5145 51.4338 92.3625 49.4083 93.3366 49.7712C94.0168 50.3764 92.7352 52.4771 92.5082 53.2101C92.2772 53.9584 92.1498 54.8128 92.2892 55.5912C92.3784 56.089 92.6181 56.5628 93.0451 56.8531C93.5684 57.2086 94.6246 57.0477 95.226 56.9433C96.0886 56.7936 101.186 55.1515 101.581 54.6066C101.848 54.2378 101.946 53.6241 102.108 53.1931C102.321 52.6257 102.611 52.1078 102.962 51.6156C104.838 48.9812 109.248 46.0074 112.443 45.4969C113.114 45.3896 113.929 45.3375 114.505 45.7708C114.844 46.0251 115.096 46.4139 115.154 46.8361C115.253 47.5553 114.841 48.2462 114.412 48.7864C113.678 49.7098 112.345 50.8107 111.141 50.9335C110.903 50.9579 110.68 50.9683 110.488 50.8076C110.241 49.6129 113.862 47.9436 112.736 46.6523C112.202 46.3909 111.763 46.6182 111.177 46.7923C108.046 47.723 101.594 52.8409 105.23 56.3066C108.25 58.5591 113.353 56.3731 116.506 55.446C118.349 54.9044 118.395 54.5936 119.426 53.3136C120.02 52.5655 120.646 51.8446 121.304 51.153C122.447 49.9675 127.005 45.5916 128.705 47.2458C128.71 47.3392 128.731 47.4516 128.616 47.4913C125.505 48.5578 122.955 51.2156 121.019 53.7922C120.466 54.5289 119.649 56.0888 119.885 57.0653C120.016 57.6051 120.166 57.7112 120.636 58.0128C123.009 58.3521 124.997 56.5238 126.738 55.298C126.037 53.6052 126.2 52.1359 126.87 50.3474C127.403 48.9256 129.756 46.8967 131.373 48.1568C131.725 48.4302 131.669 49.0775 131.654 49.5209C131.217 51.6023 129.75 53.3864 128.331 54.9094C129.61 56.1689 130.809 55.9441 132.434 55.6834C136.526 55.0269 140.04 52.4438 143.479 50.2749C145.348 49.0956 148.954 46.5592 150.796 49.1654C151.404 53.0162 146.508 57.4564 143.167 58.5541C141.821 58.9962 139.703 59.2217 138.38 58.6543C136.993 58.0591 137.472 56.2301 138.76 55.9136C139.399 55.7742 139.988 56.5115 140.494 56.8811C143.5 58.9433 146.026 56.6537 147.712 54.2358C149.012 52.371 149.461 48.6914 146.113 49.8977C143.497 50.8408 140.53 53.3917 137.969 54.6406C136.408 55.4018 134.697 56.1833 133.004 56.6129C130.833 57.1467 129.137 57.2683 127.165 56.0794C125.024 58.162 121.437 60.6808 118.249 59.9448C116.176 59.4662 117.379 56.8399 117.824 55.6243C116.768 56.3234 115.323 56.7474 114.107 57.1476C110.998 58.1711 107.544 59.492 104.231 58.8504C103.15 58.6411 101.996 57.7347 101.855 56.5907C101.829 56.3905 101.627 55.7288 101.523 55.556C101.001 55.6848 100.603 56.07 100.119 56.2552C98.4201 56.9068 96.7896 57.6453 95.0468 58.1838C93.3207 58.717 90.5495 59.5336 89.5435 57.4134C88.8609 55.9745 89.5117 54.4495 90.0199 53.0687C88.1942 54.511 86.4068 55.7646 84.3159 56.8041C81.7479 58.0799 77.5207 60.185 77.8035 55.3836C75.0956 56.9299 70.6031 58.0168 67.5269 58.8175C66.0783 59.1945 62.1446 59.4072 61.913 57.237C61.6225 54.516 64.4557 53.7711 65.6606 52.2374C65.5716 52.0325 63.2308 51.8544 62.6761 51.5381C62.4597 51.4146 62.2556 51.2327 62.2042 50.978C62.1402 50.662 62.305 50.3433 62.4833 50.0926C63.9765 47.9934 72.035 45.2055 74.7078 44.7517ZM128.061 54.1459C128.227 53.9081 128.382 53.6729 128.574 53.4554C129.22 52.6384 131.232 50.3971 130.021 49.309C129.803 49.114 129.263 49.0706 128.966 49.0354C127.548 50.1822 127.306 52.5583 128.061 54.1459Z" fill="#030303"/>
<path d="M138.931 62.5093C140.296 62.2846 143.319 62.2966 142.793 64.3354C142.656 64.8656 142.172 65.1425 141.754 65.3895C143.22 66.6069 142.803 67.312 144.877 67.9991C144.185 67.9804 143.716 67.9308 143.046 67.7919C142.741 67.5202 142.669 67.4182 142.43 67.081C142.02 66.6834 141.265 65.2539 140.58 65.6341C140.267 66.1186 140.392 67.0244 140.419 67.6191C140.803 67.7438 141.187 67.8724 141.57 68.005C140.915 67.9889 139.774 67.9921 139.163 67.9099C139.26 67.6337 139.541 67.7799 139.57 67.5908C139.68 66.8789 139.744 63.402 139.606 62.9113C139.428 62.6789 139.208 62.6241 138.931 62.5093ZM140.402 65.2477C140.872 65.2352 141.472 65.2734 141.864 65.0286C142.455 63.5908 141.833 62.919 140.408 62.7614C140.408 63.5867 140.415 64.4235 140.402 65.2477Z" fill="black" fill-opacity="0.980392"/>
<path d="M127.118 62.3391C128.055 62.7281 128.716 66.2707 129.435 66.6374C129.558 66.5706 129.702 66.3542 129.749 66.223C130.267 64.8244 130.957 63.5492 131.61 62.2109C131.679 63.2781 132.122 66.4571 132.455 67.5187C132.51 67.694 133.409 67.8529 133.656 67.9061C132.991 67.944 132.241 67.9254 131.568 67.9225C131.548 67.1597 131.38 65.7219 131.254 64.9782C131.235 64.7001 131.232 64.6332 131.143 64.3708L131.048 64.3692C130.641 64.8519 129.557 67.3564 129.137 68.1343C128.589 66.7455 128.085 65.4116 127.3 64.1328C127.159 64.7232 126.996 66.8421 126.872 67.5883C126.844 67.7628 127.427 67.7766 127.523 67.9632C127.301 68.0768 126.131 67.9576 125.806 67.9425C126.057 67.7925 126.234 67.6589 126.468 67.4847C126.715 66.3161 127.017 63.5407 127.118 62.3391Z" fill="#030303" fill-opacity="0.988235"/>
<path d="M122.52 62.3691C123.171 62.921 124.015 66.7696 124.923 67.5836C125.127 67.7666 125.364 67.8893 125.602 68.0194C124.998 67.9543 124.543 67.9311 123.935 67.9165C123.712 67.3876 123.471 66.566 123.288 65.9994L121.891 65.9826C121.756 65.9847 121.605 65.9557 121.54 66.0624C121.252 66.5273 120.982 67.115 120.969 67.649C121.06 67.7649 121.178 67.7779 121.324 67.8212L121.395 67.8416L121.423 67.9314C121.276 68.0007 119.748 67.9906 119.476 67.9949C119.788 67.8497 120.126 67.7093 120.443 67.571C120.934 66.179 121.912 63.7492 122.52 62.3691ZM121.603 65.7081L122.508 65.7383C122.778 65.7425 122.981 65.7934 123.185 65.6759C123.152 65.2322 122.708 64.08 122.351 63.8176C122.04 64.4205 121.756 65.0429 121.603 65.7081Z" fill="#030303" fill-opacity="0.980392"/>
<path d="M110.793 62.3711C111.128 62.5833 112.179 65.5528 112.381 66.0716C112.944 67.5183 112.675 67.3721 114.054 68.0323C111.84 67.7827 112.2 68.4186 111.714 65.9995L110.938 65.9878L109.829 65.9955C109.756 66.1272 109.686 66.2599 109.619 66.3938C109.434 66.7583 109.09 67.3533 109.212 67.7229C109.435 67.7717 109.531 67.7913 109.742 67.8739L109.704 67.9386C109.251 68.0264 108.395 67.9653 107.896 67.9463C107.995 67.9025 108.093 67.856 108.19 67.8068C108.593 67.604 108.801 67.3275 108.969 66.9181C109.565 65.4562 110.302 63.861 110.793 62.3711ZM109.89 65.671L110.978 65.7253C111.25 65.7252 111.319 65.7722 111.515 65.638C111.379 65.32 110.856 63.9191 110.694 63.799C110.339 64.4357 110.151 64.9949 109.89 65.671Z" fill="black" fill-opacity="0.976471"/>
<path d="M116.49 62.4334C117.591 62.3344 117.946 62.4157 119.027 62.6306C119.061 63.0329 119.088 63.3053 119.064 63.7063C118.96 63.7715 118.978 63.7488 118.88 63.6161C117.884 62.272 116.739 62.5117 115.533 63.4887C114.806 65.4774 115.213 67.4152 117.569 67.6822C119.056 67.605 118.656 66.9884 119.124 66.7886L119.184 66.867C119.095 67.201 118.997 67.8315 118.611 67.9251C117.151 68.2995 115.029 67.8398 114.47 66.2415C113.805 64.3377 114.783 63.0847 116.49 62.4334Z" fill="#030303" fill-opacity="0.980392"/>
<path d="M144.535 62.5087C144.938 62.4291 147.875 62.4095 148.075 62.5874C148.098 62.8195 148.149 63.0566 148.067 63.2649C147.456 62.7266 147.176 62.8292 146.329 62.7824C146.272 63.3899 146.281 64.2522 146.271 64.8803C146.79 64.8938 147.329 64.8246 147.826 64.9355C148.048 65.1088 147.992 65.011 148.029 65.3062L147.957 65.3826C147.253 65.2121 147.007 65.1838 146.281 65.1476L146.288 66.6497C146.278 66.9675 146.332 67.2833 146.374 67.599C147.391 67.6162 147.604 67.8545 148.239 67.0995C148.329 67.2632 148.231 67.7632 148.203 67.9819C147.307 67.972 145.803 68.0146 144.957 67.9473L144.979 67.8398L145.358 67.6977C145.555 67.418 145.478 63.423 145.443 62.8151C145.139 62.7172 144.836 62.6151 144.535 62.5087Z" fill="#030303"/>
<path d="M133.947 62.5137C134.399 62.4185 136.17 62.4719 136.718 62.4723C137.038 62.4725 137.272 62.5794 137.473 62.831C137.459 63.1015 137.487 62.9947 137.327 63.2462C136.907 62.7631 136.307 62.8456 135.606 62.7961C135.566 63.4832 135.531 64.1709 135.505 64.8587L137.32 64.9091C137.329 65.0722 137.361 65.1999 137.271 65.3261C136.782 65.3186 136.283 65.1376 135.529 65.1135L135.535 66.7301C135.539 66.992 135.566 67.312 135.581 67.5785C136.604 67.6401 136.692 67.6849 137.582 67.2011C137.656 67.3631 137.55 67.7549 137.513 67.9706C136.561 67.9739 135.2 68.0179 134.28 67.9395L134.279 67.8384L134.681 67.6303C134.815 67.3065 134.807 63.4546 134.799 62.8141C134.489 62.7186 134.249 62.6319 133.947 62.5137Z" fill="#030303"/>
<path d="M103.712 62.4768C105.27 62.4752 106.828 62.4814 108.386 62.4959C108.393 62.7693 108.457 63.06 108.321 63.2284C107.062 62.8711 107.646 62.9136 106.327 62.8824C106.319 63.5479 106.171 67.2862 106.435 67.5831C106.895 67.8241 107.051 67.7719 107.512 67.9244L105.64 67.9381L105.407 67.7801C105.533 67.1429 105.548 63.65 105.537 62.9128C105.058 62.9152 104.545 62.9082 104.069 62.9348L103.743 63.2599L103.63 63.2503C103.61 62.9685 103.662 62.7515 103.712 62.4768Z" fill="#030303"/>
<path d="M98.0125 62.4862C98.7875 62.4817 102.236 62.4203 102.729 62.5353C102.828 62.8556 102.821 63.0465 102.832 63.3799C102.667 63.3618 102.358 63.0939 102.205 62.9788L100.886 62.8709C100.86 63.5676 100.75 67.2332 100.946 67.654L101.128 67.7167C101.368 67.75 101.417 67.7442 101.625 67.8572C101.356 68.0285 99.8293 67.9977 99.5044 67.8944C99.6469 67.7368 99.8413 67.7522 100.095 67.7043C100.169 66.2317 100.12 64.4256 100.118 62.9286L98.5732 62.9158C98.4195 63.1118 98.3056 63.312 98.0802 63.3812C97.9989 63.2445 98.0491 62.7359 98.0125 62.4862Z" fill="#030303" fill-opacity="0.988235"/>
<path d="M81.5958 62.167C82.3031 63.7189 82.9801 66.081 83.8651 67.5341C83.9177 67.6203 84.6091 67.9151 84.7636 67.9974C84.1781 67.974 83.4652 67.9291 82.8893 67.9422C82.7969 67.4379 82.6153 66.2494 82.2617 65.9388L82.4712 65.8517L82.3254 65.7627C82.2402 65.4261 81.7933 64.1411 81.4962 63.9863C81.0756 64.1999 80.8104 65.1642 80.6153 65.6621L80.5483 65.529C80.5499 65.608 80.5475 65.8528 80.5659 65.9133C80.4281 66.4371 80.0617 67.0952 79.8697 67.6728C80.1931 67.7586 80.6264 67.8549 80.9132 68.0065C80.0099 67.9704 79.4228 67.9482 78.5236 68.0075C78.8477 67.8438 79.2596 67.6544 79.5391 67.4372C80.1533 65.6662 81.0334 63.9435 81.5958 62.167Z" fill="#030303" fill-opacity="0.980392"/>
<path d="M84.7001 62.4882C85.6177 62.46 86.5576 62.4841 87.4776 62.4658C87.7962 62.4595 88.3131 62.4087 88.5258 62.6479C88.5545 62.8963 88.6182 63.0541 88.5266 63.2495L88.357 63.2394C87.8058 62.6967 87.4258 62.8412 86.5751 62.8381C86.5624 63.5017 86.5632 64.2262 86.4891 64.8799C87.0076 64.9025 87.7819 64.7682 88.1323 65.0268C88.255 65.287 88.2327 65.1722 88.2112 65.4649L88.122 65.4748L87.9467 65.2626C87.7245 65.1671 86.8666 65.1625 86.5504 65.1388C86.5512 65.8001 86.5066 67.0911 86.6595 67.6837L86.5934 67.8491C86.2246 67.8936 85.6623 67.8641 85.4058 67.9351L85.3238 67.9328L85.2927 67.8438C85.4416 67.7408 85.4791 67.7169 85.6448 67.6423L85.6838 67.6247C85.9411 67.1356 85.8558 63.6465 85.8558 62.8497C85.4759 62.725 85.0832 62.6076 84.7001 62.4882Z" fill="#030303" fill-opacity="0.988235"/>
<path d="M90.5782 62.7979L90.61 62.6899C90.9048 62.4661 92.7049 62.6247 93.335 62.5449C93.3469 62.7944 93.4083 63.0333 93.2936 63.2018C92.4683 62.8599 92.2923 62.8397 91.3962 62.8237C91.3644 63.5026 91.3229 64.1921 91.3277 64.8707C91.7387 64.8724 92.5918 64.8189 92.9136 64.9431C93.1072 65.1604 93.0578 65.0558 93.1048 65.3372L93.0395 65.4162C92.3019 65.1727 92.137 65.1365 91.362 65.1097C91.3524 65.6728 91.256 67.273 91.4982 67.6809C91.9506 67.8981 92.2103 67.7833 92.6173 68.0009C92.2294 67.9982 90.1162 68.016 89.9314 67.9254C90.1003 67.7458 90.6061 67.6764 90.5997 67.5178C90.5407 66.0665 90.7622 64.2106 90.5782 62.7979Z" fill="#030303"/>
<path d="M95.1804 67.9408C94.9757 67.966 94.9749 68.0047 94.8538 67.9144C95.0355 67.8106 95.2943 67.6676 95.4082 67.4914C95.5851 67.2174 95.5428 63.3989 95.4154 63.0061C95.3103 62.6834 95.1048 62.695 94.83 62.544C95.0052 62.4099 96.6421 62.4157 96.7974 62.5265L96.4764 62.7402C96.1856 63.223 96.1602 64.4697 96.1872 65.0553C96.2127 65.6007 96.0662 67.2927 96.3617 67.6586L96.2788 67.8418C95.8893 67.9024 95.4664 67.86 95.1804 67.9408Z" fill="#030303" fill-opacity="0.988235"/>
<path d="M136.126 39.0939C136.354 39.1221 136.382 39.1217 136.593 39.0348C136.894 38.6517 136.568 38.0294 136.786 37.4482C136.944 38.3717 137.337 39.9609 136.917 40.7532C136.76 40.7997 136.748 40.8078 136.577 40.8173C136.513 40.2104 136.228 40.2111 136.126 39.0939Z" fill="#EDEAE6" fill-opacity="0.858824"/>
<path d="M80.5661 65.9126C80.5478 65.8521 80.5502 65.6073 80.5486 65.5283L80.6155 65.6614C81.1962 65.7136 81.7442 65.7374 82.3256 65.762L82.4714 65.851L82.2619 65.9381C81.7386 66.0231 81.0918 65.9763 80.5661 65.9126Z" fill="#030303"/>
<path d="M89.5458 62.4434C90.3089 62.4803 92.7693 62.4176 93.3349 62.5461C92.7048 62.6259 90.9047 62.4673 90.6099 62.6911L90.5781 62.7991C90.1703 62.6825 89.9321 62.6123 89.5458 62.4434Z" fill="#030303" fill-opacity="0.94902"/>
<path d="M86.6594 67.6846C87.0226 67.7582 87.5778 67.8524 87.9115 67.9746C87.0855 67.9749 86.2277 67.9885 85.4056 67.9359C85.6621 67.8649 86.2245 67.8944 86.5933 67.85L86.6594 67.6846Z" fill="#030303" fill-opacity="0.941176"/>
<path d="M96.3622 67.6582C96.7437 67.783 97.1754 67.8337 97.4821 67.9994L95.1809 67.9404C95.4669 67.8596 95.8898 67.902 96.2793 67.8414L96.3622 67.6582Z" fill="#030303" fill-opacity="0.898039"/>
<path d="M105.64 67.9399C105.318 67.9795 105.073 68.03 104.799 67.8692C104.996 67.7376 105.162 67.7744 105.407 67.7819L105.64 67.9399Z" fill="#030303" fill-opacity="0.898039"/>
</svg>
