<?xml version="1.0" encoding="UTF-8"?>
<svg id="Livello_2" data-name="Livello 2" xmlns="http://www.w3.org/2000/svg" viewBox="0 0 100 62">
  <defs>
    <style>
      .cls-1 {
        fill: #6e5fff;
        stroke-width: 0px;
      }
    </style>
  </defs>
  <g id="Livello_1-2" data-name="Livello 1">
    <g>
      <path class="cls-1" d="M98.21,32.59c-.56-.52-1.22-.91-1.97-1.18-.57-.21-.91-.79-.78-1.38.97-4.46-2.48-7.76-6.95-7.38-.66.06-1.24-.48-1.23-1.14.05-3.53-2.47-6.03-6.39-6.03,0,0-8.07,0-8.07,0-2.61,0-4.7.91-5.75,2.97-.22.44-.69.7-1.19.65-3.11-.32-11.99-.12-15.63-.13-.65,0-1.17-.53-1.17-1.18v-4.68c0-.66.54-1.19,1.2-1.18,2.59.07,8.41,0,9.12.02,2.05,0,3.63-.53,4.74-1.61C67.98,6.52,65.36,0,59.42,0c0,0-8.97,0-8.97,0C47.25,0,44.47,1.72,44.04,4.91c-.08.62-.6,1.07-1.22,1.05-3.48-.07-6.68,2.22-6.56,6.01,0,0,0,3.82,0,5.81,0,.65-.53,1.17-1.18,1.17h-10.29c-1.94,0-3.55.56-4.78,1.7-1.21,1.1-1.79,2.64-1.75,4.45,0,0,0,30.89,0,30.89-.47,5.89,7.64,7.65,11.2,4.37,1.16-1.01,1.73-2.47,1.73-4.37v-23.83c0-.65.53-1.18,1.18-1.18h2.72c.65,0,1.18.53,1.18,1.18v23.83c-.05,3.71,2.84,6.03,6.47,5.99,3.62.04,6.41-2.33,6.37-5.99v-23.83c0-.65.53-1.18,1.18-1.18h4.3c.98,0,1,1.11.42,1.9-.7.95-1.07,2.17-1.06,3.64,0,0,0,6.33,0,6.33-.03,2.62,1.16,4.55,3.32,5.39.54.21.86.75.76,1.33-.77,4.36,2.55,7.51,6.94,7.19.6-.04,1.13.35,1.26.94.64,2.86,2.98,4.27,6.2,4.27,0,0,12.03,0,12.03,0,5.86,0,8.46-6.72,4.64-10.39-1.09-1.08-2.63-1.61-4.64-1.61-.63.02-9.26-.07-12.55.04-.56.02-1.04-.36-1.17-.91-.42-1.82-1.59-3.14-3.29-3.81-.53-.21-.82-.75-.74-1.32,0-.02,0-.05.01-.07.08-.59.57-1.05,1.17-1.05h25.7c5.71,0,8.48-6.51,4.62-10.26ZM80.89,26.43c.67,0,1.3-.06,1.86-.18-.08.43-.11,1.9-.11,2.4,0,.63.07,1.7.2,2.23.08.31-.17.6-.48.6h-11.19c-.32,0-.56-.29-.48-.6.13-.54.2-1.62.2-2.23,0-.51-.05-2-.13-2.45.63.14,1.32.22,2.07.22h8.07Z"/>
      <path class="cls-1" d="M20.01,10.36c1.16,1.08,2.73,1.61,4.74,1.61s3.63-.53,4.74-1.61c1.16-1.08,1.73-2.54,1.73-4.37s-.58-3.36-1.73-4.37C28.39.55,26.81.02,24.74.02s-3.56.53-4.74,1.61c-1.16,1.01-1.73,2.47-1.73,4.37s.58,3.29,1.73,4.37Z"/>
      <path class="cls-1" d="M11.2,1.61c-1.09-1.08-2.66-1.61-4.74-1.61S2.91.53,1.73,1.61C.58,2.62,0,4.08,0,5.98v50c0,1.91.58,3.36,1.73,4.37,1.16,1.08,2.73,1.61,4.74,1.61s3.63-.53,4.74-1.61c1.16-1.01,1.73-2.47,1.73-4.37V5.98c0-1.9-.58-3.36-1.73-4.37Z"/>
    </g>
  </g>
</svg>