<svg width="72" height="57" viewBox="0 0 72 57" fill="none" xmlns="http://www.w3.org/2000/svg">
<circle cx="43.9315" cy="28.0682" r="27.5682" fill="#7678F6" stroke="white"/>
<circle cx="35.3895" cy="28.0682" r="27.5682" fill="#E25938" stroke="white"/>
<circle cx="28.0682" cy="28.0682" r="27.5682" fill="#FF76BF" stroke="white"/>
<path d="M15 39.832C16.2251 40.6831 17.5333 41.4095 18.9048 42C20.9118 39.0828 24.2903 37.1675 28.1148 37.1675C29.8802 37.1659 31.6205 37.5815 33.1924 38.3801C34.7643 39.1787 36.1227 40.3374 37.1554 41.7606C38.5103 41.1333 39.7984 40.372 41 39.4884C38.1879 35.4096 33.4669 32.734 28.1148 32.734C25.5061 32.7324 22.9385 33.3814 20.6473 34.6214C18.3561 35.8615 16.4144 37.653 15 39.832Z" fill="#262626"/>
<path d="M24.9005 29.9267C25.8475 30.3166 26.8624 30.5172 27.8874 30.5172C29.9574 30.5172 31.9427 29.6998 33.4064 28.2448C34.8702 26.7898 35.6925 24.8163 35.6925 22.7586C35.6925 20.7009 34.8702 18.7275 33.4064 17.2724C31.9427 15.8174 29.9574 15 27.8874 15C26.8624 15 25.8475 15.2007 24.9005 15.5906C23.9535 15.9805 23.0931 16.552 22.3683 17.2724C21.6436 17.9929 21.0686 18.8482 20.6764 19.7895C20.2841 20.7308 20.0823 21.7397 20.0823 22.7586C20.0823 23.7775 20.2841 24.7864 20.6764 25.7277C21.0686 26.669 21.6436 27.5243 22.3683 28.2448C23.0931 28.9652 23.9535 29.5367 24.9005 29.9267Z" fill="#262626"/>
</svg>
